<?xml version="1.0" encoding="UTF-8" standalone="no"?>
<svg
   xmlns:dc="http://purl.org/dc/elements/1.1/"
   xmlns:cc="http://creativecommons.org/ns#"
   xmlns:rdf="http://www.w3.org/1999/02/22-rdf-syntax-ns#"
   xmlns:svg="http://www.w3.org/2000/svg"
   xmlns="http://www.w3.org/2000/svg"
   viewBox="0 0 666.66669 496.81332"
   height="496.81332"
   width="666.66669"
   xml:space="preserve"
   id="svg2"
   version="1.1"><metadata
     id="metadata8"><rdf:RDF><cc:Work
         rdf:about=""><dc:format>image/svg+xml</dc:format><dc:type
           rdf:resource="http://purl.org/dc/dcmitype/StillImage" /></cc:Work></rdf:RDF></metadata><defs
     id="defs6" /><g
     transform="matrix(1.3333333,0,0,-1.3333333,0,496.81333)"
     id="g10"><g
       transform="scale(0.1)"
       id="g12"><path
         id="path14"
         style="fill:#eeeeee;fill-opacity:1;fill-rule:nonzero;stroke:none"
         d="m 0,449.129 h 5000 v 2.5 H 0 Z" /><path
         id="path16"
         style="fill:#eeeeee;fill-opacity:1;fill-rule:nonzero;stroke:none"
         d="m 4167.79,290.672 h 331.22 v -2.5 h -331.22 v 2.5" /><path
         id="path18"
         style="fill:#eeeeee;fill-opacity:1;fill-rule:nonzero;stroke:none"
         d="m 3225.27,261.039 h 86.9297 v 2.5 H 3225.27 Z" /><path
         id="path20"
         style="fill:#eeeeee;fill-opacity:1;fill-rule:nonzero;stroke:none"
         d="m 3965.86,381.039 h 191.922 v 2.5 H 3965.86 Z" /><path
         id="path22"
         style="fill:#eeeeee;fill-opacity:1;fill-rule:nonzero;stroke:none"
         d="m 524.59,364.23 h 431.934 v 2.5 H 524.59 Z" /><path
         id="path24"
         style="fill:#eeeeee;fill-opacity:1;fill-rule:nonzero;stroke:none"
         d="m 1045.56,364.23 h 63.332 v 2.5 h -63.332 z" /><path
         id="path26"
         style="fill:#eeeeee;fill-opacity:1;fill-rule:nonzero;stroke:none"
         d="m 1314.71,322.012 h 936.758 v 2.5 H 1314.71 Z" /><path
         id="path28"
         style="fill:#eeeeee;fill-opacity:1;fill-rule:nonzero;stroke:none"
         d="m 439.152,3723.59 c -30.101,0 -54.582,-24.48 -54.582,-54.57 V 954.699 c 0,-30.097 24.481,-54.578 54.582,-54.578 H 2370.14 c 30.08,0 54.57,24.481 54.57,54.578 V 3669.02 c 0,30.09 -24.49,54.57 -54.57,54.57 H 439.152 M 2370.14,897.621 H 439.152 c -31.476,0 -57.082,25.598 -57.082,57.078 V 3669.02 c 0,31.46 25.606,57.07 57.082,57.07 H 2370.14 c 31.46,0 57.07,-25.61 57.07,-57.07 V 954.699 c 0,-31.48 -25.61,-57.078 -57.07,-57.078" /><path
         id="path30"
         style="fill:#eeeeee;fill-opacity:1;fill-rule:nonzero;stroke:none"
         d="m 2602.12,3723.59 c -30.09,0 -54.57,-24.48 -54.57,-54.57 V 954.699 c 0,-30.097 24.48,-54.578 54.57,-54.578 h 1930.99 c 30.09,0 54.58,24.481 54.58,54.578 V 3669.02 c 0,30.09 -24.49,54.57 -54.58,54.57 H 2602.12 M 4533.11,897.621 H 2602.12 c -31.47,0 -57.07,25.598 -57.07,57.078 V 3669.02 c 0,31.46 25.6,57.07 57.07,57.07 h 1930.99 c 31.47,0 57.08,-25.61 57.08,-57.07 V 954.699 c 0,-31.48 -25.61,-57.078 -57.08,-57.078" /><path
         id="path32"
         style="fill:#e3e3e2;fill-opacity:1;fill-rule:nonzero;stroke:none"
         d="m 1992.31,1187.71 h -139.96 l 155.86,-128.98 h 54.08 l -36.36,55.26 106.17,-55.26 h 25.62 30.22 l -195.63,128.98" /><path
         id="path34"
         style="fill:#e3e3e2;fill-opacity:1;fill-rule:nonzero;stroke:none"
         d="m 887.445,1058.73 h 55.836 l 123.889,64.49 -54.07,-64.49 h 54.07 l 155.87,128.98 H 1083.08 L 887.445,1058.73" /><path
         id="path36"
         style="fill:#f4f4f4;fill-opacity:1;fill-rule:nonzero;stroke:none"
         d="m 1038.54,1058.73 128.83,128.98 h -84.29 L 887.445,1058.73 h 30.223 l 149.502,82.2 -54.07,-82.2 h 25.44" /><path
         id="path38"
         style="fill:#e3e3e2;fill-opacity:1;fill-rule:nonzero;stroke:none"
         d="M 2456,819.109 H 943.281 V 1019.09 H 2456 V 819.109 M 602.594,1058.73 V 446.91 H 2486.8 v 611.82 H 602.594" /><path
         id="path40"
         style="fill:#eeeeee;fill-opacity:1;fill-rule:nonzero;stroke:none"
         d="M 2456,819.109 H 943.281 V 1019.09 H 2456 V 819.109 M 902.113,1058.73 V 446.91 H 2486.8 v 611.82 H 902.113" /><path
         id="path42"
         style="fill:#e3e3e2;fill-opacity:1;fill-rule:nonzero;stroke:none"
         d="m 2180.2,819.121 h 275.82 v 199.93 H 2180.2 Z" /><path
         id="path44"
         style="fill:#e3e3e2;fill-opacity:1;fill-rule:nonzero;stroke:none"
         d="m 943.281,819.121 h 399.398 v 99.9609 H 943.281 Z" /><path
         id="path46"
         style="fill:#e3e3e2;fill-opacity:1;fill-rule:nonzero;stroke:none"
         d="m 1367.84,819.121 h 256.891 v 59.3789 H 1367.84 Z" /><path
         id="path48"
         style="fill:#e3e3e2;fill-opacity:1;fill-rule:nonzero;stroke:none"
         d="m 1684.11,819.109 h 302.902 V 940.582 H 1684.11 Z" /><path
         id="path50"
         style="fill:#e3e3e2;fill-opacity:1;fill-rule:nonzero;stroke:none"
         d="m 1244,775.582 -7.34,-23.902 h -98.22 l -7.33,23.902 H 943.281 V 510.141 H 1431.83 V 775.582 H 1244" /><path
         id="path52"
         style="fill:#e3e3e2;fill-opacity:1;fill-rule:nonzero;stroke:none"
         d="m 1755.45,775.582 -7.33,-23.902 h -98.22 l -7.33,23.902 H 1454.74 V 510.141 h 488.55 v 265.441 h -187.84" /><path
         id="path54"
         style="fill:#e3e3e2;fill-opacity:1;fill-rule:nonzero;stroke:none"
         d="m 2266.91,775.582 -7.33,-23.902 h -98.22 l -7.33,23.902 H 1966.2 V 510.141 h 488.55 v 265.441 h -187.84" /><path
         id="path56"
         style="fill:#e3e3e2;fill-opacity:1;fill-rule:nonzero;stroke:none"
         d="M 2154.91,1170.64 H 857.008 c -19.496,0 -35.305,15.8 -35.305,35.3 v 756.3 c 0,19.5 15.809,35.3 35.305,35.3 H 2154.91 c 19.49,0 35.3,-15.8 35.3,-35.3 v -756.3 c 0,-19.5 -15.81,-35.3 -35.3,-35.3" /><path
         id="path58"
         style="fill:#e9e9e8;fill-opacity:1;fill-rule:nonzero;stroke:none"
         d="M 2187.07,1170.64 H 889.172 c -19.5,0 -35.305,15.8 -35.305,35.3 v 756.3 c 0,19.5 15.805,35.3 35.305,35.3 H 2187.07 c 19.5,0 35.3,-15.8 35.3,-35.3 v -756.3 c 0,-19.5 -15.8,-35.3 -35.3,-35.3" /><path
         id="path60"
         style="fill:#f4f4f4;fill-opacity:1;fill-rule:nonzero;stroke:none"
         d="m 894.074,1210.84 h 1288.1 v 746.492 h -1288.1 z" /><path
         id="path62"
         style="fill:#e3e3e2;fill-opacity:1;fill-rule:nonzero;stroke:none"
         d="m 3912.55,3093.88 c -0.01,-104.6 -84.8,-189.4 -189.4,-189.4 -104.6,0 -189.39,84.8 -189.39,189.4 0,104.6 84.79,189.39 189.39,189.39 104.6,0 189.4,-84.79 189.4,-189.39" /><path
         id="path64"
         style="fill:#f4f4f4;fill-opacity:1;fill-rule:nonzero;stroke:none"
         d="m 3884.19,3093.88 c 0,-88.94 -72.1,-161.04 -161.04,-161.04 -88.93,0 -161.03,72.1 -161.03,161.04 0,88.93 72.1,161.03 161.03,161.03 88.94,0 161.04,-72.1 161.04,-161.03" /><path
         id="path66"
         style="fill:#f4f4f4;fill-opacity:1;fill-rule:nonzero;stroke:none"
         d="m 3715.56,3204.35 v -112.58 l -74.6,42.22" /><path
         id="path68"
         style="fill:#e3e3e2;fill-opacity:1;fill-rule:nonzero;stroke:none"
         d="m 3705.56,3204.35 v -95.43 l -59.68,33.77 c -4.8,2.72 -10.91,1.03 -13.63,-3.78 -2.72,-4.8 -1.02,-10.9 3.78,-13.62 l 74.6,-42.22 c 3.11,-1.76 6.88,-1.73 9.96,0.07 3.09,1.79 4.97,5.06 4.97,8.63 v 112.58 c 0,5.52 -4.48,10 -10,10 -5.53,0 -10,-4.48 -10,-10" /><path
         id="path70"
         style="fill:#e9e9e8;fill-opacity:1;fill-rule:nonzero;stroke:none"
         d="m 1143.69,3093.24 c 0,0 -9.14,60.25 34.81,98.89 43.94,38.63 40.07,61.6 27.52,64.6 -12.56,3 -24.14,-35.63 -43.46,-46.26 0,0 -0.61,55.06 19.01,75.34 19.62,20.28 29.92,72.53 11.25,73.45 -18.67,0.92 -20.6,-31.03 -24.47,-53.69 -3.86,-22.66 -24.66,-54.53 -24.66,-54.53 0,0 -4.07,49.26 -16.74,69.54 -12.68,20.28 21.12,66.64 8.08,86.93 -13.04,20.28 -36.22,-18.36 -34.28,-61.82 1.93,-43.46 30.9,-89.82 24.14,-135.22 0,0 -12.78,31.88 -24.26,34.78 -11.47,2.89 -23.07,23.97 -30.79,31.78 -7.73,7.81 -17.38,-19.23 0,-44.34 17.38,-25.11 61.81,-92.29 55.05,-146.59 l 18.8,7.14" /><path
         id="path72"
         style="fill:#e9e9e8;fill-opacity:1;fill-rule:nonzero;stroke:none"
         d="m 1169.96,3120.66 14.39,-90.31 c 4.44,-27.89 -17.1,-53.14 -45.35,-53.14 h -15.35 c -28.24,0 -49.79,25.25 -45.34,53.14 l 14.39,90.31 h 77.26" /><path
         id="path74"
         style="fill:#e3e3e2;fill-opacity:1;fill-rule:nonzero;stroke:none"
         d="M 952.305,3010.54 H 1969.51 v -52.27 H 952.301 l 0.004,52.27" /><path
         id="path76"
         style="fill:#eeeeee;fill-opacity:1;fill-rule:nonzero;stroke:none"
         d="m 1877.88,3010.54 h 44.81 v 192.64 h -44.81 v -192.64" /><path
         id="path78"
         style="fill:#eeeeee;fill-opacity:1;fill-rule:nonzero;stroke:none"
         d="M 1661.19,3010.54 H 1706 v 192.64 h -44.81 v -192.64" /><path
         id="path80"
         style="fill:#eeeeee;fill-opacity:1;fill-rule:nonzero;stroke:none"
         d="m 1382.47,3018.14 44.16,-7.6 32.72,189.84 -44.16,7.62 -32.72,-189.86" /><path
         id="path82"
         style="fill:#eeeeee;fill-opacity:1;fill-rule:nonzero;stroke:none"
         d="m 1822.35,3010.54 h 44.81 v 167.25 h -44.81 v -167.25" /><path
         id="path84"
         style="fill:#eeeeee;fill-opacity:1;fill-rule:nonzero;stroke:none"
         d="m 1719.35,3010.54 h 44.81 v 167.25 h -44.81 v -167.25" /><path
         id="path86"
         style="fill:#eeeeee;fill-opacity:1;fill-rule:nonzero;stroke:none"
         d="m 1459.35,3010.54 h 44.82 v 167.25 h -44.82 v -167.25" /><path
         id="path88"
         style="fill:#eeeeee;fill-opacity:1;fill-rule:nonzero;stroke:none"
         d="m 1566.04,3020.25 43.75,-9.71 36.28,163.27 -43.75,9.73 -36.28,-163.29" /><path
         id="path90"
         style="fill:#eeeeee;fill-opacity:1;fill-rule:nonzero;stroke:none"
         d="m 1783.6,3010.54 h 22.41 v 202.21 h -22.41 v -202.21" /><path
         id="path92"
         style="fill:#eeeeee;fill-opacity:1;fill-rule:nonzero;stroke:none"
         d="m 1517.05,3010.54 h 22.4 v 202.21 h -22.4 v -202.21" /><path
         id="path94"
         style="fill:#e3e3e2;fill-opacity:1;fill-rule:nonzero;stroke:none"
         d="m 952.301,2568.1 h 1017.21 v 52.2695 H 952.301 Z" /><path
         id="path96"
         style="fill:#eeeeee;fill-opacity:1;fill-rule:nonzero;stroke:none"
         d="m 1043.94,2620.37 h -44.819 v 192.65 h 44.819 v -192.65" /><path
         id="path98"
         style="fill:#eeeeee;fill-opacity:1;fill-rule:nonzero;stroke:none"
         d="m 1215.82,2620.37 h 44.8008 v 192.648 H 1215.82 Z" /><path
         id="path100"
         style="fill:#eeeeee;fill-opacity:1;fill-rule:nonzero;stroke:none"
         d="m 1539.35,2627.98 -44.17,-7.61 -32.72,189.85 44.17,7.61 32.72,-189.85" /><path
         id="path102"
         style="fill:#eeeeee;fill-opacity:1;fill-rule:nonzero;stroke:none"
         d="m 1099.46,2620.37 h -44.81 v 167.26 h 44.81 v -167.26" /><path
         id="path104"
         style="fill:#eeeeee;fill-opacity:1;fill-rule:nonzero;stroke:none"
         d="m 1202.47,2620.37 h -44.81 v 167.26 h 44.81 v -167.26" /><path
         id="path106"
         style="fill:#eeeeee;fill-opacity:1;fill-rule:nonzero;stroke:none"
         d="m 1417.65,2620.37 h 44.8125 v 167.258 H 1417.65 Z" /><path
         id="path108"
         style="fill:#eeeeee;fill-opacity:1;fill-rule:nonzero;stroke:none"
         d="m 1355.77,2630.08 -43.75,-9.71 -36.28,163.28 43.75,9.72 36.28,-163.29" /><path
         id="path110"
         style="fill:#eeeeee;fill-opacity:1;fill-rule:nonzero;stroke:none"
         d="m 1138.21,2620.37 h -22.4 v 202.22 h 22.4 v -202.22" /><path
         id="path112"
         style="fill:#eeeeee;fill-opacity:1;fill-rule:nonzero;stroke:none"
         d="m 1382.36,2620.37 h 22.4102 v 202.211 H 1382.36 Z" /><path
         id="path114"
         style="fill:#eeeeee;fill-opacity:1;fill-rule:nonzero;stroke:none"
         d="m 1653.55,2622.1 h 218.348 v 150.742 H 1653.55 Z" /><path
         id="path116"
         style="fill:#f8f8f9;fill-opacity:1;fill-rule:nonzero;stroke:none"
         d="M 4438.89,113.23 C 4438.89,50.6914 3570.83,0 2500,0 1429.18,0 561.113,50.6914 561.113,113.23 c 0,62.54 868.067,113.239 1938.887,113.239 1070.83,0 1938.89,-50.699 1938.89,-113.239" /><path
         id="path118"
         style="fill:#4870c0;fill-opacity:1;fill-rule:nonzero;stroke:none"
         d="m 745.73,830.422 0.223,0.18 c 2.539,2.117 26.633,20.386 54.59,20.269 14.93,-0.051 30.996,-4.871 46.824,-20.199 5.391,-5.192 10.867,-14.692 15.754,-27.231 17.297,-44 28.09,-124.179 34.301,-192.89 3.125,-34.391 5.148,-65.981 6.391,-88.969 0.621,-11.492 1.046,-20.832 1.316,-27.301 0.269,-6.461 0.387,-10.019 0.387,-10.031 l 9.996,0.309 c -0.004,0.082 -2.414,75.461 -11.102,157.07 -4.344,40.812 -10.25,83.16 -18.258,118.551 -4.007,17.711 -8.535,33.672 -13.718,46.91 -5.215,13.242 -10.977,23.789 -18.094,30.75 -17.512,17.09 -36.629,23.082 -53.797,23.031 -34.363,-0.141 -60.789,-22.531 -61.215,-22.769 l 6.402,-7.68" /><path
         id="path120"
         style="fill:#4870c0;fill-opacity:1;fill-rule:nonzero;stroke:none"
         d="m 919.629,426.73 c 0,0 -0.25,2.59 -0.637,7.52 -1.156,14.762 -3.476,50.148 -3.476,96.309 -0.004,57.941 3.664,132.851 17.804,205.14 14.118,72.313 38.809,141.93 80.16,189.332 l -7.54,6.571 C 962.762,881.98 937.855,810.859 923.508,737.621 909.188,664.371 905.52,588.922 905.516,530.559 c 0,-61.989 4.152,-104.688 4.16,-104.797 l 9.953,0.968" /><path
         id="path122"
         style="fill:#4870c0;fill-opacity:1;fill-rule:nonzero;stroke:none"
         d="m 907.328,463.172 c 0.004,0.066 3.309,50.289 3.309,119.25 -0.004,63.219 -2.77,142.16 -13.449,212.777 -5.348,35.321 -12.668,68.563 -22.696,96.813 -10.047,28.23 -22.738,51.547 -39.375,66.898 l -6.769,-7.359 C 843.121,938 855.371,916.039 865.07,888.66 c 29.239,-82.168 35.606,-211.91 35.567,-306.238 0,-34.32 -0.824,-63.992 -1.645,-85.07 -0.414,-10.532 -0.824,-18.93 -1.133,-24.68 -0.304,-5.75 -0.507,-8.844 -0.507,-8.844 l 9.976,-0.656 v 0" /><path
         id="path124"
         style="fill:#4870c0;fill-opacity:1;fill-rule:nonzero;stroke:none"
         d="m 919.652,463.461 c 0,0.008 0.036,4.09 0.239,11.41 0.703,25.598 3.464,90.34 13.875,152.93 5.199,31.281 12.324,62.031 21.933,86.929 9.563,24.942 21.793,43.758 35.84,51.692 8.981,5.137 17.031,7.219 24.411,7.219 11.97,0 22.67,-5.539 32.35,-14.5 14.49,-13.403 25.91,-34.289 33.47,-51.782 3.79,-8.738 6.65,-16.629 8.55,-22.32 0.95,-2.84 1.66,-5.129 2.13,-6.699 0.47,-1.57 0.69,-2.379 0.7,-2.379 l 9.64,2.629 c -0.06,0.211 -7.02,25.808 -21.04,51.75 -7.03,12.969 -15.81,26.058 -26.65,36.129 -10.79,10.043 -23.94,17.179 -39.15,17.172 -9.3,0.007 -19.177,-2.68 -29.384,-8.539 -19.996,-11.633 -33.714,-37 -44.312,-68.192 -15.762,-46.851 -23.832,-107.531 -28.063,-156.66 -4.218,-49.121 -4.535,-86.621 -4.539,-86.711 l 10,-0.078" /><path
         id="path126"
         style="fill:#4870c0;fill-opacity:1;fill-rule:nonzero;stroke:none"
         d="m 891.148,463.211 c 0.004,0.07 1.043,18.078 1.043,45.328 -0.003,32.371 -1.457,77.742 -7.882,121.66 -6.485,43.942 -17.692,86.41 -38.309,113.461 -15.016,19.719 -31.352,27.93 -46.961,27.879 -11.098,-0.008 -21.398,-4 -30.504,-9.699 -27.226,-17.149 -45.344,-49.738 -45.59,-50.031 l 8.707,-4.911 0.332,0.571 c 1.719,2.941 10.172,16.812 22.5,29.703 6.153,6.449 13.27,12.629 20.864,17.109 7.601,4.5 15.597,7.258 23.691,7.258 12.012,-0.047 25.055,-5.848 39.024,-23.961 18.714,-24.308 30.085,-65.656 36.351,-108.816 6.32,-43.172 7.777,-88.16 7.777,-120.223 0,-13.488 -0.257,-24.699 -0.515,-32.527 -0.258,-7.821 -0.512,-12.211 -0.512,-12.223 l 9.984,-0.578" /><path
         id="path128"
         style="fill:#4870c0;fill-opacity:1;fill-rule:nonzero;stroke:none"
         d="m 910.621,436.52 c -0.004,0.031 -0.676,8.902 -1.687,24.519 -3.039,46.832 -9.121,153.941 -9.121,260.793 0,58.949 1.855,117.828 7.062,166.359 2.602,24.258 6.043,45.93 10.469,63.649 4.394,17.719 9.875,31.48 15.984,39.691 l -8.043,5.949 c -7.43,-10.109 -13.035,-24.832 -17.644,-43.218 -13.711,-55.082 -17.805,-143.653 -17.828,-232.43 0,-142.961 10.832,-286 10.835,-286.062 l 9.973,0.75" /><path
         id="path130"
         style="fill:#4870c0;fill-opacity:1;fill-rule:nonzero;stroke:none"
         d="m 1050.83,732.02 c 0,0 -35.97,-13.258 -25.28,-44.571 10.7,-31.308 124.44,-82.828 124.44,-82.828 0,0 47.64,43.66 3.89,114.68 -43.74,71.008 -102.08,35.129 -103.05,12.719" /><path
         id="path132"
         style="fill:#658acf;fill-opacity:1;fill-rule:nonzero;stroke:none"
         d="m 1149.99,604.621 c 0,0 -113.74,51.52 -124.44,82.828 -1.38,4.043 -1.98,7.77 -1.98,11.223 -0.03,23.289 27.26,33.348 27.26,33.348 0.54,12.5 18.92,29.191 42.67,29.191 18.83,0 41.03,-10.5 60.38,-41.91 13.76,-22.332 18.48,-41.961 18.49,-58.371 0.01,-35.789 -22.38,-56.309 -22.38,-56.309" /><path
         id="path134"
         style="fill:#4870c0;fill-opacity:1;fill-rule:nonzero;stroke:none"
         d="m 894.453,791.621 c 0,0 38.305,1.598 40.485,-31.402 2.175,-33.02 -82.985,-124.348 -82.985,-124.348 0,0 -60.777,21.969 -47.719,104.348 13.051,82.383 80.696,71.703 90.219,51.402" /><path
         id="path136"
         style="fill:#658acf;fill-opacity:1;fill-rule:nonzero;stroke:none"
         d="m 851.953,635.871 c 0,0 -49.594,17.93 -49.558,82.109 0.003,6.872 0.578,14.27 1.839,22.239 7.946,50.152 36.125,65.812 59.106,65.812 14.769,0 27.387,-6.461 31.113,-14.41 0,0 0.301,0.02 0.848,0.02 5.64,0 37.648,-1.332 39.637,-31.422 0.027,-0.418 0.039,-0.848 0.039,-1.289 0,-8.91 -5.7,-21.598 -14.106,-35.469 -5.965,-9.84 -13.289,-20.27 -20.918,-30.379 -3.258,-4.32 -6.57,-8.582 -9.855,-12.703 -0.106,-0.129 -0.203,-0.258 -0.309,-0.387 -4.066,-5.101 -8.094,-10.012 -11.91,-14.562 -2.856,-3.418 -5.602,-6.629 -8.16,-9.598 -10.375,-12.031 -17.766,-19.961 -17.766,-19.961" /><path
         id="path138"
         style="fill:#4870c0;fill-opacity:1;fill-rule:nonzero;stroke:none"
         d="m 862.023,949.648 c 0,0 25.536,2.743 23.481,18.293 -2.059,15.559 -99.274,55.599 -156.637,-9.14 0,0 36.731,-63.102 89.824,-63.922 53.09,-0.828 43.332,54.769 43.332,54.769" /><path
         id="path140"
         style="fill:#658acf;fill-opacity:1;fill-rule:nonzero;stroke:none"
         d="m 819.859,894.871 c -0.382,0 -0.773,0.008 -1.168,0.008 -53.093,0.82 -89.824,63.922 -89.824,63.922 23.824,26.89 54.524,35.699 82.426,35.699 39.277,0 73.008,-17.461 74.211,-26.559 0.082,-0.609 0.117,-1.191 0.117,-1.761 -0.019,-14 -23.598,-16.532 -23.598,-16.532 v 0 0 c 0,0 0.704,-4.007 0.704,-9.859 0.003,-4.539 -0.418,-10.18 -1.918,-15.918 -1.079,-4.121 -2.711,-8.289 -5.145,-12.141 -5.957,-9.398 -16.703,-16.859 -35.805,-16.859" /><path
         id="path142"
         style="fill:#4870c0;fill-opacity:1;fill-rule:nonzero;stroke:none"
         d="m 909.609,987.422 c 0,0 -23.121,-11.18 -29.605,3.109 -6.481,14.289 54.855,99.689 137.776,75.079 0,0 2.2,-72.969 -42.428,-101.751 -44.625,-28.781 -65.743,23.563 -65.743,23.563" /><path
         id="path144"
         style="fill:#658acf;fill-opacity:1;fill-rule:nonzero;stroke:none"
         d="m 949.738,955.219 c -11.879,0 -21.05,6.172 -27.605,13.113 -2.942,3.117 -5.356,6.379 -7.25,9.316 -3.535,5.461 -5.274,9.774 -5.274,9.774 0,0 -3.171,-1.531 -7.496,-2.742 -2.797,-0.782 -6.078,-1.418 -9.297,-1.418 -5.226,0 -10.285,1.699 -12.812,7.269 -0.316,0.688 -0.469,1.559 -0.469,2.571 0.016,17.178 44.836,76.928 108.332,76.928 9.578,0 19.573,-1.35 29.913,-4.42 v 0 c 0,-0.02 0.02,-0.6 0.02,-1.69 0,-1.18 -0.03,-2.94 -0.11,-5.19 v 0 c -0.32,-8.38 -1.56,-23.44 -6.01,-39.64 -5.57,-20.231 -16.176,-42.231 -36.328,-55.231 -9.622,-6.211 -18.153,-8.64 -25.614,-8.64" /><path
         id="path146"
         style="fill:#4870c0;fill-opacity:1;fill-rule:nonzero;stroke:none"
         d="m 788.695,744.609 c 0,0 17.629,14.231 -1.394,21.172 -19.02,6.961 -112.348,4.981 -113.321,-87.472 0,0 108.696,-18.059 122.153,17.152 13.457,35.211 -7.438,49.148 -7.438,49.148" /><path
         id="path148"
         style="fill:#658acf;fill-opacity:1;fill-rule:nonzero;stroke:none"
         d="m 731.121,673.68 c -29.262,0 -57.141,4.629 -57.141,4.629 0.774,73.75 60.309,89.921 94.024,89.921 8.551,0 15.449,-1.039 19.297,-2.449 6.648,-2.422 8.82,-5.742 8.832,-9.031 0.019,-6.121 -7.438,-12.141 -7.438,-12.141 v 0 0 c 0,0 11.938,-7.961 11.953,-27.058 0.008,-6.16 -1.23,-13.492 -4.515,-22.09 -6.645,-17.379 -36.485,-21.781 -65.012,-21.781" /><path
         id="path150"
         style="fill:#4870c0;fill-opacity:1;fill-rule:nonzero;stroke:none"
         d="m 1010.36,951.961 c 0,0 -17.626,14.23 1.39,21.187 19.03,6.942 112.36,4.973 113.33,-87.476 0,0 -108.7,-18.07 -122.15,17.137 -13.461,35.222 7.43,49.152 7.43,49.152" /><path
         id="path152"
         style="fill:#658acf;fill-opacity:1;fill-rule:nonzero;stroke:none"
         d="m 1067.93,881.031 c -28.52,0 -58.36,4.399 -65,21.778 -0.84,2.191 -1.54,4.293 -2.12,6.312 -1.435,4.949 -2.15,9.418 -2.345,13.438 -0.039,0.8 -0.059,1.582 -0.059,2.351 0.02,19.09 11.954,27.051 11.954,27.051 v 0 0 c 0,0 -7.46,6.019 -7.44,12.141 0.01,3.289 2.18,6.609 8.83,9.046 3.85,1.403 10.74,2.442 19.29,2.442 33.71,0 93.26,-16.168 94.04,-89.918 0,0 -27.88,-4.641 -57.15,-4.641" /><path
         id="path154"
         style="fill:#4870c0;fill-opacity:1;fill-rule:nonzero;stroke:none"
         d="m 952.891,877.492 c 0,0 -1.547,17.297 12.418,10.52 13.968,-6.782 62.621,-59.27 12.187,-109.082 0,0 -67.891,50.281 -55.656,76.461 12.242,26.191 31.051,22.101 31.051,22.101" /><path
         id="path156"
         style="fill:#658acf;fill-opacity:1;fill-rule:nonzero;stroke:none"
         d="m 977.496,778.93 c 0,0 -13.605,10.07 -27.539,23.562 -2.664,2.567 -5.344,5.278 -7.937,8.059 -11.633,12.461 -21.637,26.48 -21.657,37.871 -0.004,2.457 0.461,4.797 1.477,6.969 9.328,19.961 22.469,22.328 28.195,22.328 1.789,0 2.856,-0.227 2.856,-0.227 v 0 0 c 0,0 -0.051,0.559 -0.051,1.438 -0.004,3.199 0.648,10.652 6.777,10.652 1.531,0 3.403,-0.461 5.692,-1.57 9.414,-4.571 34.574,-29.891 34.554,-61.16 -0.004,-2.543 -0.168,-5.122 -0.523,-7.731 -1.766,-12.949 -8.152,-26.672 -21.844,-40.191" /><path
         id="path158"
         style="fill:#4870c0;fill-opacity:1;fill-rule:nonzero;stroke:none"
         d="m 772.941,852.84 c 0,0 10.536,13.801 -4.894,15.519 -15.43,1.711 -84.578,-16.75 -68.477,-85.781 0,0 84.243,6.332 87.856,35.012 3.609,28.672 -14.485,35.25 -14.485,35.25" /><path
         id="path160"
         style="fill:#658acf;fill-opacity:1;fill-rule:nonzero;stroke:none"
         d="m 699.57,782.578 c -1.66,7.113 -2.414,13.684 -2.414,19.762 -0.011,50.441 51.942,66.129 68.727,66.129 0.805,0 1.531,-0.039 2.164,-0.11 6.508,-0.718 8.398,-3.597 8.402,-6.679 0.012,-4.219 -3.508,-8.84 -3.508,-8.84 v 0 0 c 0,0 14.989,-5.449 14.961,-28.051 -0.004,-2.23 -0.152,-4.617 -0.476,-7.199 -3.613,-28.68 -87.856,-35.012 -87.856,-35.012" /><path
         id="path162"
         style="fill:#4870c0;fill-opacity:1;fill-rule:nonzero;stroke:none"
         d="M 1057.55,207.219 H 768.496 l -31.18,316.472 h 351.424 l -31.19,-316.472" /><path
         id="path164"
         style="fill:#a1bce6;fill-opacity:1;fill-rule:nonzero;stroke:none"
         d="M 1057.55,207.219 H 768.496 L 740.754,488.781 H 1085.3 l -4.13,-41.871 -7.9,-80.18 -0.24,-2.5 -15.48,-157.011" /><path
         id="path166"
         style="fill:#4870c0;fill-opacity:1;fill-rule:nonzero;stroke:none"
         d="m 721.879,488.781 h 382.293 v 69.8281 H 721.879 Z" /><path
         id="path168"
         style="fill:#658acf;fill-opacity:1;fill-rule:nonzero;stroke:none"
         d="M 1104.17,488.781 H 721.879 v 69.828 h 382.291 v -48.468 -21.36" /><path
         id="path170"
         style="fill:#1d2a30;fill-opacity:1;fill-rule:nonzero;stroke:none"
         d="m 3400.19,207.219 0.61,3.703 16.95,197.797 h 72 l -51.48,-201.5 h -38.08" /><path
         id="path172"
         style="fill:#1d2a30;fill-opacity:1;fill-rule:nonzero;stroke:none"
         d="m 4067.39,207.219 -0.61,3.703 -16.95,197.797 h -72 l 51.48,-201.5 h 38.08" /><path
         id="path174"
         style="fill:#1d2a30;fill-opacity:1;fill-rule:nonzero;stroke:none"
         d="m 3305.23,207.219 0.62,3.703 32.77,197.797 h 72 l -67.3,-201.5 h -38.09" /><path
         id="path176"
         style="fill:#1d2a30;fill-opacity:1;fill-rule:nonzero;stroke:none"
         d="m 4162.35,207.219 -0.61,3.703 -32.78,197.797 h -72 l 67.3,-201.5 h 38.09" /><path
         id="path178"
         style="fill:#45555c;fill-opacity:1;fill-rule:nonzero;stroke:none"
         d="m 3343.32,207.219 h -38.09 l 0.62,3.703 25.47,153.707 h 64.57 l -52.57,-157.41" /><path
         id="path180"
         style="fill:#45555c;fill-opacity:1;fill-rule:nonzero;stroke:none"
         d="m 4162.35,207.219 h -38.09 l -52.58,157.41 h 64.59 l 25.47,-153.707 0.61,-3.703" /><path
         id="path182"
         style="fill:#4870c0;fill-opacity:1;fill-rule:nonzero;stroke:none"
         d="m 4167.73,1592.71 h -867.89 c -21.97,0 -39.78,-17.82 -39.78,-39.79 V 404.41 c 0,-21.969 17.81,-39.781 39.78,-39.781 h 867.89 c 21.98,0 39.79,17.812 39.79,39.781 v 1148.51 c 0,21.97 -17.81,39.79 -39.79,39.79" /><path
         id="path184"
         style="fill:#8daee0;fill-opacity:1;fill-rule:nonzero;stroke:none"
         d="m 4167.73,364.629 h -867.89 c -0.47,0 -0.94,0.012 -1.41,0.019 3.87,10.282 9.44,25.293 16.15,44.071 h 854.34 v 443.34 h -737.17 c 1.31,9.972 2.47,19.832 3.45,29.55 h 733.72 V 1324.95 H 3305.5 c -15.45,27.96 -30.87,54.58 -45.44,78.97 v 149 c 0,21.97 17.81,39.79 39.78,39.79 h 150.38 58.75 224.88 101.16 176.97 50.11 105.64 c 21.98,0 39.79,-17.82 39.79,-39.79 v -652.799 -2.5 -445.992 -2.5 -44.719 c 0,-21.969 -17.81,-39.781 -39.79,-39.781 M 3298.67,1548.62 V 1354.5 h 870.25 v 194.12 H 3298.67 M 3260.06,839.5 v 80.23 c 2.79,-6.96 4.34,-12.57 4.44,-16.57 0.12,-4.601 -0.19,-11.98 -0.84,-21.66 -0.77,-11.191 -2,-25.441 -3.6,-42" /><path
         id="path186"
         style="fill:#c8daf2;fill-opacity:1;fill-rule:nonzero;stroke:none"
         d="M 4168.92,881.609 H 3435.2 c 5.86,57.93 5.48,110.891 -4.69,152.681 -21.89,89.92 -73.62,197.7 -125.01,290.66 h 863.42 V 881.609 m -536.35,443.341 9.56,-19.48 c 3.84,-7.82 11.79,-12.77 20.5,-12.77 h 142.32 c 8.71,0 16.66,4.95 20.49,12.77 l 9.57,19.48 h -202.44" /><path
         id="path188"
         style="fill:#c8daf2;fill-opacity:1;fill-rule:nonzero;stroke:none"
         d="m 4168.92,408.719 h -854.34 c 11.83,33.133 27.21,77.972 43.11,129.16 29.29,94.32 60.32,210.223 74.06,314.18 h 737.17 v -443.34 m -536.35,443.34 9.56,-19.481 c 3.84,-7.816 11.79,-12.769 20.5,-12.769 h 142.32 c 8.71,0 16.66,4.953 20.49,12.769 l 9.57,19.481 h -202.44" /><path
         id="path190"
         style="fill:#c8daf2;fill-opacity:1;fill-rule:nonzero;stroke:none"
         d="m 4168.92,1354.5 h -870.25 v 194.12 h 870.25 V 1354.5 m -536.35,194.12 9.56,-19.49 c 3.84,-7.82 11.79,-12.77 20.5,-12.77 h 142.32 c 8.71,0 16.66,4.95 20.49,12.77 l 9.57,19.49 h -202.44" /><path
         id="path192"
         style="fill:#586680;fill-opacity:1;fill-rule:nonzero;stroke:none"
         d="m 3804.95,1516.36 h -142.32 c -8.71,0 -16.66,4.95 -20.5,12.77 l -9.56,19.49 h 202.44 l -9.57,-19.49 c -3.83,-7.82 -11.78,-12.77 -20.49,-12.77" /><path
         id="path194"
         style="fill:#586680;fill-opacity:1;fill-rule:nonzero;stroke:none"
         d="m 3804.95,1292.7 h -142.32 c -8.71,0 -16.66,4.95 -20.5,12.77 l -9.56,19.48 h 202.44 l -9.57,-19.48 c -3.83,-7.82 -11.78,-12.77 -20.49,-12.77" /><path
         id="path196"
         style="fill:#586680;fill-opacity:1;fill-rule:nonzero;stroke:none"
         d="m 3804.95,819.809 h -142.32 c -8.71,0 -16.66,4.953 -20.5,12.769 l -9.56,19.481 h 202.44 l -9.57,-19.481 c -3.83,-7.816 -11.78,-12.769 -20.49,-12.769" /><path
         id="path198"
         style="fill:#4870c0;fill-opacity:1;fill-rule:nonzero;stroke:none"
         d="m 3986.92,1728.18 75.17,-135.47 h -93.63 l 18.46,135.47" /><path
         id="path200"
         style="fill:#395eb4;fill-opacity:1;fill-rule:nonzero;stroke:none"
         d="m 4062.09,1592.71 h -50.11 l 15.2,62.92 34.91,-62.92" /><path
         id="path202"
         style="fill:#4870c0;fill-opacity:1;fill-rule:nonzero;stroke:none"
         d="m 4011.98,1592.71 h -176.97 l 55.38,229.28 h 176.97 l -55.38,-229.28" /><path
         id="path204"
         style="fill:#a1bce6;fill-opacity:1;fill-rule:nonzero;stroke:none"
         d="M 3996.37,1610.91 H 3859.4 l 46.59,192.88 h 136.97 l -46.59,-192.88" /><path
         id="path206"
         style="fill:#4870c0;fill-opacity:1;fill-rule:nonzero;stroke:none"
         d="m 3494.14,1697.1 -43.92,-104.39 h 117.4 l -73.48,104.39" /><path
         id="path208"
         style="fill:#4870c0;fill-opacity:1;fill-rule:nonzero;stroke:none"
         d="m 3733.85,1592.71 h -224.88 l -52.74,162.91 h 224.87 l 52.75,-162.91" /><path
         id="path210"
         style="fill:#658acf;fill-opacity:1;fill-rule:nonzero;stroke:none"
         d="m 3733.85,1592.71 h -224.88 l -52.74,162.91 h 224.87 l 52.75,-162.91 m -27.61,23.49 v 0 l -37.53,115.92 h -184.87 l 37.53,-115.92 h 184.87" /><path
         id="path212"
         style="fill:#b4caec;fill-opacity:1;fill-rule:nonzero;stroke:none"
         d="m 3706.24,1616.2 h -184.87 l -37.53,115.92 h 184.87 l 37.53,-115.92" /><path
         id="path214"
         style="fill:#1d2a30;fill-opacity:1;fill-rule:nonzero;stroke:none"
         d="M 2732.3,59.4414 H 1295.61 c -57.46,0 -104.03,46.5786 -104.03,104.0276 V 2713.71 c 0,57.45 46.57,104.02 104.03,104.02 H 2732.3 c 57.45,0 104.02,-46.57 104.02,-104.02 V 163.469 c 0,-57.449 -46.57,-104.0276 -104.02,-104.0276" /><path
         id="path216"
         style="fill:#4870c0;fill-opacity:1;fill-rule:nonzero;stroke:none"
         d="M 2780.82,2718.63 V 163.84 c 0,-22.66 -18.21,-40.258 -40.87,-40.258 H 1283.6 c -20.83,0 -36.51,16.117 -36.51,36.949 V 2721.94 c 0,18.04 13.24,33.81 31.28,33.81 h 364.09 c 10.28,0 19.61,-6.71 23.44,-16.38 l 15.08,-37.12 c 3.83,-9.59 13.16,-16.21 23.44,-16.21 h 619.85 c 10.29,0 19.61,6.36 23.44,15.94 l 15.08,37.31 c 3.83,9.67 13.16,16.46 23.44,16.46 h 358.86 c 19.87,0 35.73,-17.25 35.73,-37.12" /><path
         id="path218"
         style="fill:#2e53ac;fill-opacity:1;fill-rule:nonzero;stroke:none"
         d="M 2739.95,123.582 H 1283.6 c -20.83,0 -36.51,16.117 -36.51,36.949 V 2721.94 c 0,18.04 13.24,33.81 31.28,33.81 h 364.09 c 10.28,0 19.61,-6.71 23.44,-16.38 l 15.08,-37.12 c 3.83,-9.59 13.16,-16.21 23.44,-16.21 h 619.85 c 10.29,0 19.61,6.36 23.44,15.94 l 15.08,37.31 c 3.83,9.67 13.16,16.46 23.44,16.46 h 358.86 c 19.87,0 35.73,-17.25 35.73,-37.12 V 2583.64 H 1247.09 V 311.551 H 2780.82 V 163.84 c 0,-22.66 -18.21,-40.258 -40.87,-40.258 M 2614.96,2688.42 v -43.68 h 89.46 v 43.68 h -89.46 m -1198.85,-18.43 v -25.25 h 18.94 v 25.25 h -18.94 m -30.88,8.42 v -33.67 h 18.95 v 33.67 h -18.95 m -30.87,8.43 v -42.1 h 18.95 v 42.1 h -18.95 m -30.87,8.43 v -50.53 h 18.94 v 50.53 h -18.94 m 1272.52,-16.06 v -25.26 h 11.23 v 25.26 h -11.23" /><path
         id="path220"
         style="fill:#abbce6;fill-opacity:1;fill-rule:nonzero;stroke:none"
         d="M 2780.82,311.551 H 1247.09 V 2583.64 h 1533.73 v -404.71 c -0.04,-0.04 -0.08,-0.08 -0.12,-0.12 -11.57,-11.35 -18.32,-27.14 -18.32,-43.72 0,-7.07 1.22,-14.29 3.82,-21.37 5.2,-13.9 9.5,-25.9 11.2,-30.7 1.16,-3.3 2.3,-6.55 3.42,-9.76 V 311.551 M 1517.37,994.082 c -41.51,0 -75.16,-33.66 -75.16,-75.16 0,-41.524 33.65,-75.172 75.16,-75.172 h 993.16 c 41.51,0 75.17,33.648 75.17,75.172 0,41.5 -33.66,75.16 -75.17,75.16 h -993.16 m 196.27,89.618 c -9.29,0 -16.07,-6.47 -16.07,-16.19 0,-9.72 6.78,-16.25 16.07,-16.25 4.68,0 8.75,1.8 11.33,5.4 v -5.04 h 5.52 v 44.49 h -5.76 v -17.51 c -2.64,3.42 -6.59,5.1 -11.09,5.1 m -61.5,0 c -9.53,0 -16.55,-6.72 -16.55,-16.19 0,-9.47 7.02,-16.25 16.55,-16.25 9.53,0 16.49,6.78 16.49,16.25 0,9.47 -6.96,16.19 -16.49,16.19 m -97.73,-24.16 -2.4,-4.56 c 2.64,-2.1 7.86,-3.72 13.13,-3.72 8.46,0 13.74,3.66 13.74,9.41 0,12.36 -20.15,6.24 -20.15,13.73 0,2.52 2.46,4.39 7.49,4.39 3.12,0 6.3,-0.66 9.18,-2.52 l 2.46,4.55 c -2.76,1.81 -7.44,2.88 -11.58,2.88 -8.16,0 -13.25,-3.84 -13.25,-9.53 0,-12.66 20.09,-6.47 20.09,-13.61 0,-2.7 -2.22,-4.32 -7.56,-4.32 -4.13,0 -8.45,1.38 -11.15,3.3 m -30.06,0 -2.4,-4.56 c 2.64,-2.1 7.86,-3.72 13.13,-3.72 8.46,0 13.74,3.66 13.74,9.41 0,12.36 -20.15,6.24 -20.15,13.73 0,2.52 2.46,4.39 7.49,4.39 3.12,0 6.3,-0.66 9.18,-2.52 l 2.46,4.55 c -2.76,1.81 -7.44,2.88 -11.57,2.88 -8.16,0 -13.26,-3.84 -13.26,-9.53 0,-12.66 20.09,-6.47 20.09,-13.61 0,-2.7 -2.22,-4.32 -7.56,-4.32 -4.13,0 -8.45,1.38 -11.15,3.3 m -23.95,10.37 c -9.47,0 -12.77,-4.2 -12.77,-9.29 0,-5.52 4.55,-9.36 11.75,-9.36 4.98,0 8.52,1.68 10.43,4.56 v -4.2 h 5.46 v 19.19 c 0,8.69 -4.91,12.89 -13.61,12.89 -5.1,0 -9.83,-1.43 -13.13,-4.07 l 2.4,-4.32 c 2.45,2.09 6.29,3.42 10.07,3.42 5.69,0 8.52,-2.82 8.52,-7.67 v -1.15 h -9.12 m 176.23,13.5 v -31.79 h 5.75 v 15.83 c 0,6.95 3.84,10.74 10.02,10.74 l 1.32,-0.06 v 5.57 c -5.58,0 -9.54,-1.91 -11.58,-5.63 v 5.34 h -5.51 m -69.61,-7.68 9.17,-24.11 h 5.51 l 11.88,31.79 h -5.16 l -9.47,-25.43 -9.42,25.43 h -4.85 l -9.6,-25.31 -9.24,25.31 h -5.45 l 11.81,-31.79 h 5.52 l 9.3,24.11 m -158.51,17.86 v -41.97 h 6 v 12.72 h 10.37 c 10.92,0 17.51,5.51 17.51,14.63 0,9.11 -6.59,14.62 -17.51,14.62 h -16.37 m 68.86,270.49 c -41.51,0 -75.16,-33.66 -75.16,-75.16 0,-41.52 33.65,-75.17 75.16,-75.17 h 993.16 c 41.51,0 75.17,33.65 75.17,75.17 0,41.5 -33.66,75.16 -75.17,75.16 h -993.16 m 66.01,75.83 c -9.47,0 -12.77,-4.2 -12.77,-9.29 0,-5.52 4.56,-9.36 11.75,-9.36 4.98,0 8.52,1.68 10.44,4.56 v -4.2 h 5.46 v 19.19 c 0,8.69 -4.92,12.89 -13.62,12.89 -5.09,0 -9.83,-1.43 -13.13,-4.07 l 2.4,-4.32 c 2.46,2.09 6.29,3.42 10.07,3.42 5.7,0 8.52,-2.82 8.52,-7.67 v -1.15 h -9.12 m 42.31,26.2 v -44.49 h 5.76 v 44.49 h -5.76 m -16.74,-12.7 v -31.79 h 5.76 v 31.79 h -5.76 m -60.5,-4.86 c 5.22,0 8.22,-3.06 8.22,-9.3 v -17.63 h 5.75 v 18.29 c 0,9.36 -5.28,13.79 -13.01,13.79 -5.4,0 -9.83,-2.27 -12.23,-5.88 -2.1,3.97 -6.18,5.88 -11.04,5.88 -4.8,0 -8.69,-1.79 -10.97,-5.04 v 4.75 h -5.52 v -31.79 h 5.76 v 16.37 c 0,6.9 3.77,10.56 9.53,10.56 5.22,0 8.22,-3.06 8.22,-9.3 v -17.63 h 5.76 v 16.37 c 0,6.9 3.77,10.56 9.53,10.56 m -99.94,15.05 v -41.98 h 30.46 v 5.22 h -24.46 v 13.55 h 21.04 v 5.1 h -21.04 v 12.89 h 23.62 v 5.22 h -29.62 m 36.12,-23.03 v -4.97 h 16.13 v 4.97 h -16.13 m 127.2,26.44 c -2.22,0 -3.9,-1.67 -3.9,-3.77 0,-2.1 1.68,-3.72 3.9,-3.72 2.28,0 3.89,1.68 3.89,3.84 0,2.04 -1.67,3.65 -3.89,3.65 m 186.72,227.32 v 0 c 52.23,-60.31 129.36,-98.44 215.46,-98.44 85.98,0 163.12,38.13 215.34,98.44 v 0 0 c 43.37,50.05 69.6,115.27 69.6,186.61 0,157.33 -127.61,284.94 -284.94,284.94 -157.44,0 -285.05,-127.61 -285.05,-284.94 0,-71.34 26.22,-136.56 69.59,-186.61 v 0 M 1500.34,1055.7 c -4.38,0 -7.01,1.98 -7.01,5.16 0,2.7 1.61,4.91 7.31,4.91 h 8.88 v -4.43 c -1.44,-3.66 -4.86,-5.64 -9.18,-5.64 m 213.78,0.6 c -6.12,0 -10.74,4.43 -10.74,11.21 0,6.78 4.62,11.15 10.74,11.15 6.06,0 10.67,-4.37 10.67,-11.15 0,-6.78 -4.61,-11.21 -10.67,-11.21 m -61.98,0 c -6.12,0 -10.73,4.43 -10.73,11.21 0,6.78 4.61,11.15 10.73,11.15 6.12,0 10.68,-4.37 10.68,-11.15 0,-6.78 -4.56,-11.21 -10.68,-11.21 m -187.44,13.25 h -10.19 v 18.83 h 10.19 c 7.67,0 11.69,-3.42 11.69,-9.41 0,-6 -4.02,-9.42 -11.69,-9.42 m 118.62,356.15 c -4.37,0 -7.01,1.98 -7.01,5.16 0,2.7 1.62,4.91 7.31,4.91 h 8.88 v -4.43 c -1.44,-3.66 -4.86,-5.64 -9.18,-5.64" /><path
         id="path222"
         style="fill:#abbce6;fill-opacity:1;fill-rule:nonzero;stroke:none"
         d="m 1416.11,2644.74 h 18.9414 v 25.25 H 1416.11 Z" /><path
         id="path224"
         style="fill:#abbce6;fill-opacity:1;fill-rule:nonzero;stroke:none"
         d="m 1385.23,2644.74 h 18.9492 v 33.668 H 1385.23 Z" /><path
         id="path226"
         style="fill:#abbce6;fill-opacity:1;fill-rule:nonzero;stroke:none"
         d="m 1354.36,2644.74 h 18.9492 v 42.0977 H 1354.36 Z" /><path
         id="path228"
         style="fill:#abbce6;fill-opacity:1;fill-rule:nonzero;stroke:none"
         d="m 1323.49,2644.74 h 18.9414 v 50.5273 H 1323.49 Z" /><path
         id="path230"
         style="fill:#abbce6;fill-opacity:1;fill-rule:nonzero;stroke:none"
         d="m 2596.01,2653.95 h 11.2266 v 25.2617 H 2596.01 Z" /><path
         id="path232"
         style="fill:#abbce6;fill-opacity:1;fill-rule:nonzero;stroke:none"
         d="m 2614.96,2644.74 h 89.4609 v 43.6797 H 2614.96 Z" /><path
         id="path234"
         style="fill:#a5adad;fill-opacity:1;fill-rule:nonzero;stroke:none"
         d="m 1992.65,2731.08 c -11.62,0 -21.05,9.42 -21.05,21.05 0,11.62 9.43,21.05 21.05,21.05 11.63,0 21.05,-9.43 21.05,-21.05 0,-11.63 -9.42,-21.05 -21.05,-21.05" /><path
         id="path236"
         style="fill:#a5adad;fill-opacity:1;fill-rule:nonzero;stroke:none"
         d="m 2042.82,2738.64 c -7.45,0 -13.49,6.04 -13.49,13.49 0,7.44 6.04,13.48 13.49,13.48 7.45,0 13.48,-6.04 13.48,-13.48 0,-7.45 -6.03,-13.49 -13.48,-13.49" /><path
         id="path238"
         style="fill:#4870c0;fill-opacity:1;fill-rule:nonzero;stroke:none"
         d="M 2780.82,2321.33 H 1247.09 v 262.31 h 1533.73 v -262.31" /><path
         id="path240"
         style="fill:#ffffff;fill-opacity:1;fill-rule:nonzero;stroke:none"
         d="m 2653.3,2422.51 c -10.3,0 -18.65,8.35 -18.65,18.65 0,10.3 8.35,18.65 18.65,18.65 10.3,0 18.66,-8.35 18.66,-18.65 0,-10.3 -8.36,-18.65 -18.66,-18.65 z m 62.38,8.56 v 20.18 h -17.77 c -1.17,5.15 -3.22,9.95 -5.96,14.28 l 12.59,12.6 -14.26,14.26 -12.59,-12.59 c -4.35,2.74 -9.14,4.8 -14.29,5.96 v 17.77 h -20.18 v -17.77 c -5.16,-1.16 -9.96,-3.22 -14.29,-5.96 l -12.59,12.59 -14.27,-14.26 12.59,-12.6 c -2.74,-4.33 -4.8,-9.13 -5.95,-14.28 h -17.78 v -20.18 h 17.78 c 1.15,-5.16 3.21,-9.96 5.95,-14.29 l -12.59,-12.59 14.27,-14.27 12.59,12.59 c 4.33,-2.74 9.13,-4.79 14.29,-5.96 v -17.77 h 20.18 v 17.77 c 5.15,1.17 9.94,3.22 14.29,5.96 l 12.59,-12.59 14.26,14.27 -12.59,12.59 c 2.74,4.33 4.79,9.13 5.96,14.29 h 17.77" /><path
         id="path242"
         style="fill:#ffffff;fill-opacity:1;fill-rule:nonzero;stroke:none"
         d="m 1379.67,2496.18 -67.44,-64.08 h 20.82 v -45.97 h 93.23 v 45.97 h 20.83 l -67.44,64.08" /><path
         id="path244"
         style="fill:#5d6b89;fill-opacity:1;fill-rule:nonzero;stroke:none"
         d="m 2229.35,1694.33 c -20.87,75.17 -79.97,134.17 -154.93,155.25 29.95,19.67 49.72,53.54 49.72,92.11 0,60.85 -49.28,110.23 -110.13,110.23 -60.97,0 -110.24,-49.38 -110.24,-110.23 0,-38.57 19.78,-72.44 49.71,-92.11 -74.95,-21.08 -134.06,-80.08 -154.93,-155.25 v 0 c -43.37,50.05 -69.59,115.27 -69.59,186.61 0,157.33 127.61,284.94 285.05,284.94 157.33,0 284.94,-127.61 284.94,-284.94 0,-71.34 -26.23,-136.56 -69.6,-186.61 v 0" /><path
         id="path246"
         style="fill:#e4e5eb;fill-opacity:1;fill-rule:nonzero;stroke:none"
         d="m 2014.01,1595.89 c -86.1,0 -163.23,38.13 -215.46,98.44 20.87,75.17 79.98,134.17 154.93,155.25 -29.93,19.67 -49.71,53.54 -49.71,92.11 0,60.85 49.27,110.23 110.24,110.23 60.85,0 110.13,-49.38 110.13,-110.23 0,-38.57 -19.77,-72.44 -49.72,-92.11 74.96,-21.08 134.06,-80.08 154.93,-155.25 -52.22,-60.31 -129.36,-98.44 -215.34,-98.44" /><path
         id="path248"
         style="fill:#4a5670;fill-opacity:1;fill-rule:nonzero;stroke:none"
         d="m 1478.97,1421.62 h -30.46 v 41.98 h 29.62 v -5.22 h -23.62 v -12.89 h 21.04 v -5.1 h -21.04 v -13.55 h 24.46 v -5.22" /><path
         id="path250"
         style="fill:#4a5670;fill-opacity:1;fill-rule:nonzero;stroke:none"
         d="m 1484.63,1435.6 h 16.1328 v 4.9688 H 1484.63 Z" /><path
         id="path252"
         style="fill:#4a5670;fill-opacity:1;fill-rule:nonzero;stroke:none"
         d="m 1562.42,1421.62 h -5.75 v 17.63 c 0,6.24 -3,9.3 -8.22,9.3 -5.76,0 -9.53,-3.66 -9.53,-10.56 v -16.37 h -5.76 v 17.63 c 0,6.24 -3,9.3 -8.22,9.3 -5.76,0 -9.53,-3.66 -9.53,-10.56 v -16.37 h -5.76 v 31.79 h 5.52 v -4.75 c 2.28,3.25 6.17,5.04 10.97,5.04 4.86,0 8.94,-1.91 11.04,-5.88 2.4,3.61 6.83,5.88 12.23,5.88 7.73,0 13.01,-4.43 13.01,-13.79 v -18.29" /><path
         id="path254"
         style="fill:#4a5670;fill-opacity:1;fill-rule:nonzero;stroke:none"
         d="m 1582.36,1421.26 c -7.19,0 -11.75,3.84 -11.75,9.36 0,5.09 3.3,9.29 12.77,9.29 h 9.12 v 1.15 c 0,4.85 -2.82,7.67 -8.52,7.67 -3.78,0 -7.61,-1.33 -10.07,-3.42 l -2.4,4.32 c 3.3,2.64 8.04,4.07 13.13,4.07 8.7,0 13.62,-4.2 13.62,-12.89 v -19.19 h -5.46 v 4.2 c -1.92,-2.88 -5.46,-4.56 -10.44,-4.56 m 1.26,14.51 c -5.69,0 -7.31,-2.21 -7.31,-4.91 0,-3.18 2.64,-5.16 7.01,-5.16 4.32,0 7.74,1.98 9.18,5.64 v 4.43 h -8.88" /><path
         id="path256"
         style="fill:#4a5670;fill-opacity:1;fill-rule:nonzero;stroke:none"
         d="m 1614.71,1421.62 h -5.76 v 31.79 h 5.76 v -31.79 m -2.88,37.9 c -2.22,0 -3.9,1.62 -3.9,3.72 0,2.1 1.68,3.77 3.9,3.77 2.22,0 3.89,-1.61 3.89,-3.65 0,-2.16 -1.61,-3.84 -3.89,-3.84" /><path
         id="path258"
         style="fill:#4a5670;fill-opacity:1;fill-rule:nonzero;stroke:none"
         d="m 1625.69,1421.62 h 5.7578 v 44.4883 h -5.7578 z" /><path
         id="path260"
         style="fill:#f2f5fb;fill-opacity:1;fill-rule:nonzero;stroke:none"
         d="m 2510.53,1213.75 h -993.16 c -41.51,0 -75.16,33.65 -75.16,75.17 0,41.5 33.65,75.16 75.16,75.16 h 993.16 c 41.51,0 75.17,-33.66 75.17,-75.16 0,-41.52 -33.66,-75.17 -75.17,-75.17" /><path
         id="path262"
         style="fill:#4a5670;fill-opacity:1;fill-rule:nonzero;stroke:none"
         d="m 1454.51,1051.62 h -6 v 41.97 h 16.37 c 10.92,0 17.51,-5.51 17.51,-14.62 0,-9.12 -6.59,-14.63 -17.51,-14.63 h -10.37 v -12.72 m 0,36.76 v -18.83 h 10.19 c 7.67,0 11.69,3.42 11.69,9.42 0,5.99 -4.02,9.41 -11.69,9.41 h -10.19" /><path
         id="path264"
         style="fill:#4a5670;fill-opacity:1;fill-rule:nonzero;stroke:none"
         d="m 1499.38,1051.26 c -7.2,0 -11.75,3.84 -11.75,9.36 0,5.09 3.3,9.29 12.77,9.29 h 9.12 v 1.15 c 0,4.85 -2.83,7.67 -8.52,7.67 -3.78,0 -7.62,-1.33 -10.07,-3.42 l -2.4,4.32 c 3.3,2.64 8.03,4.07 13.13,4.07 8.7,0 13.61,-4.2 13.61,-12.89 v -19.19 h -5.46 v 4.2 c -1.91,-2.88 -5.45,-4.56 -10.43,-4.56 m 1.26,14.51 c -5.7,0 -7.31,-2.21 -7.31,-4.91 0,-3.18 2.63,-5.16 7.01,-5.16 4.32,0 7.74,1.98 9.18,5.64 v 4.43 h -8.88" /><path
         id="path266"
         style="fill:#4a5670;fill-opacity:1;fill-rule:nonzero;stroke:none"
         d="m 1535.08,1051.26 c -5.27,0 -10.49,1.62 -13.13,3.72 l 2.4,4.56 c 2.7,-1.92 7.02,-3.3 11.15,-3.3 5.34,0 7.56,1.62 7.56,4.32 0,7.14 -20.09,0.95 -20.09,13.61 0,5.69 5.1,9.53 13.26,9.53 4.13,0 8.81,-1.07 11.57,-2.88 l -2.46,-4.55 c -2.88,1.86 -6.06,2.52 -9.18,2.52 -5.03,0 -7.49,-1.87 -7.49,-4.39 0,-7.49 20.15,-1.37 20.15,-13.73 0,-5.75 -5.28,-9.41 -13.74,-9.41" /><path
         id="path268"
         style="fill:#4a5670;fill-opacity:1;fill-rule:nonzero;stroke:none"
         d="m 1565.14,1051.26 c -5.27,0 -10.49,1.62 -13.13,3.72 l 2.4,4.56 c 2.7,-1.92 7.02,-3.3 11.15,-3.3 5.34,0 7.56,1.62 7.56,4.32 0,7.14 -20.09,0.95 -20.09,13.61 0,5.69 5.09,9.53 13.25,9.53 4.14,0 8.82,-1.07 11.58,-2.88 l -2.46,-4.55 c -2.88,1.86 -6.06,2.52 -9.18,2.52 -5.03,0 -7.49,-1.87 -7.49,-4.39 0,-7.49 20.15,-1.37 20.15,-13.73 0,-5.75 -5.28,-9.41 -13.74,-9.41" /><path
         id="path270"
         style="fill:#4a5670;fill-opacity:1;fill-rule:nonzero;stroke:none"
         d="m 1621.7,1051.62 h -5.51 l -9.17,24.11 -9.3,-24.11 h -5.52 l -11.81,31.79 h 5.45 l 9.24,-25.31 9.6,25.31 h 4.85 l 9.42,-25.43 9.47,25.43 h 5.16 l -11.88,-31.79" /><path
         id="path272"
         style="fill:#4a5670;fill-opacity:1;fill-rule:nonzero;stroke:none"
         d="m 1652.14,1051.26 c -9.53,0 -16.55,6.78 -16.55,16.25 0,9.47 7.02,16.19 16.55,16.19 9.53,0 16.49,-6.72 16.49,-16.19 0,-9.47 -6.96,-16.25 -16.49,-16.25 m 0,27.4 c -6.12,0 -10.73,-4.37 -10.73,-11.15 0,-6.78 4.61,-11.21 10.73,-11.21 6.12,0 10.68,4.43 10.68,11.21 0,6.78 -4.56,11.15 -10.68,11.15" /><path
         id="path274"
         style="fill:#4a5670;fill-opacity:1;fill-rule:nonzero;stroke:none"
         d="m 1682.38,1051.62 h -5.75 v 31.79 h 5.51 v -5.34 c 2.04,3.72 6,5.63 11.58,5.63 v -5.57 l -1.32,0.06 c -6.18,0 -10.02,-3.79 -10.02,-10.74 v -15.83" /><path
         id="path276"
         style="fill:#4a5670;fill-opacity:1;fill-rule:nonzero;stroke:none"
         d="m 1713.64,1051.26 c -9.29,0 -16.07,6.53 -16.07,16.25 0,9.72 6.78,16.19 16.07,16.19 4.5,0 8.45,-1.68 11.09,-5.1 v 17.51 h 5.76 v -44.49 h -5.52 v 5.04 c -2.58,-3.6 -6.65,-5.4 -11.33,-5.4 m 0.48,27.4 c -6.12,0 -10.74,-4.37 -10.74,-11.15 0,-6.78 4.62,-11.21 10.74,-11.21 6.06,0 10.67,4.43 10.67,11.21 0,6.78 -4.61,11.15 -10.67,11.15" /><path
         id="path278"
         style="fill:#f2f5fb;fill-opacity:1;fill-rule:nonzero;stroke:none"
         d="m 2510.53,843.75 h -993.16 c -41.51,0 -75.16,33.648 -75.16,75.172 0,41.5 33.65,75.16 75.16,75.16 h 993.16 c 41.51,0 75.17,-33.66 75.17,-75.16 0,-41.524 -33.66,-75.172 -75.17,-75.172" /><path
         id="path280"
         style="fill:#4870c0;fill-opacity:1;fill-rule:nonzero;stroke:none"
         d="m 2260.53,533.75 h -493.16 c -41.51,0 -75.16,33.648 -75.16,75.172 0,41.5 33.65,75.16 75.16,75.16 h 493.16 c 41.51,0 75.17,-33.66 75.17,-75.16 0,-41.524 -33.66,-75.172 -75.17,-75.172" /><g
         transform="scale(10)"
         id="g282"><text
           id="text286"
           style="font-variant:normal;font-weight:500;font-size:8.47605038px;font-family:Montserrat;-inkscape-font-specification:Montserrat-Medium;writing-mode:lr-tb;fill:#ffffff;fill-opacity:1;fill-rule:nonzero;stroke:none"
           transform="matrix(1,0,0,-1,186.562,57.6391)"><tspan
             id="tspan284"
             y="0"
             x="0 5.2636271 7.6284451 13.476919 19.249109 21.529167 23.893986">Sign in</tspan></text>
</g><path
         id="path288"
         style="fill:#4870c0;fill-opacity:1;fill-rule:nonzero;stroke:none"
         d="m 3801.04,2426.39 -429.49,4.06 c -20.39,0.26 -36.71,16.99 -36.46,37.38 l 4.07,129.49 c 0.25,20.39 16.98,36.71 37.37,36.46 l 429.49,-4.07 c 20.39,-0.25 36.71,-16.98 36.46,-37.38 l -4.07,-129.48 c -0.25,-20.39 -16.98,-36.72 -37.37,-36.46" /><path
         id="path290"
         style="fill:#4870c0;fill-opacity:1;fill-rule:nonzero;stroke:none"
         d="m 3580.01,2459.12 c 0,0 -54.42,-120.35 -173.37,-156.7 0,0 66.01,37 62.53,163.11 l 110.84,-6.41" /><path
         id="path292"
         style="fill:#ffffff;fill-opacity:1;fill-rule:nonzero;stroke:none"
         d="m 3446.52,2531.61 10.24,-5.54 -4.6,-7.71 -10.34,6.11 0.19,-11.37 h -8.84 l 0.1,11.46 -10.35,-6.2 -4.51,7.71 10.25,5.54 -10.25,5.64 4.51,7.71 10.35,-6.2 -0.1,11.46 h 8.84 l -0.19,-11.46 10.34,6.2 4.6,-7.71 -10.24,-5.64" /><path
         id="path294"
         style="fill:#ffffff;fill-opacity:1;fill-rule:nonzero;stroke:none"
         d="m 3507.95,2531.61 10.24,-5.54 -4.6,-7.71 -10.34,6.11 0.19,-11.37 h -8.84 l 0.1,11.46 -10.34,-6.2 -4.52,7.71 10.25,5.54 -10.25,5.64 4.52,7.71 10.34,-6.2 -0.1,11.46 h 8.84 l -0.19,-11.46 10.34,6.2 4.6,-7.71 -10.24,-5.64" /><path
         id="path296"
         style="fill:#ffffff;fill-opacity:1;fill-rule:nonzero;stroke:none"
         d="m 3569.38,2531.61 10.24,-5.54 -4.6,-7.71 -10.34,6.11 0.19,-11.37 h -8.84 l 0.1,11.46 -10.34,-6.2 -4.52,7.71 10.25,5.54 -10.25,5.64 4.52,7.71 10.34,-6.2 -0.1,11.46 h 8.84 l -0.19,-11.46 10.34,6.2 4.6,-7.71 -10.24,-5.64" /><path
         id="path298"
         style="fill:#ffffff;fill-opacity:1;fill-rule:nonzero;stroke:none"
         d="m 3630.82,2531.61 10.24,-5.54 -4.6,-7.71 -10.34,6.11 0.18,-11.37 h -8.83 l 0.09,11.46 -10.34,-6.2 -4.51,7.71 10.24,5.54 -10.24,5.64 4.51,7.71 10.34,-6.2 -0.09,11.46 h 8.83 l -0.18,-11.46 10.34,6.2 4.6,-7.71 -10.24,-5.64" /><path
         id="path300"
         style="fill:#ffffff;fill-opacity:1;fill-rule:nonzero;stroke:none"
         d="m 3692.25,2531.61 10.24,-5.54 -4.6,-7.71 -10.35,6.11 0.19,-11.37 h -8.83 l 0.09,11.46 -10.34,-6.2 -4.51,7.71 10.25,5.54 -10.25,5.64 4.51,7.71 10.34,-6.2 -0.09,11.46 h 8.83 l -0.19,-11.46 10.35,6.2 4.6,-7.71 -10.24,-5.64" /><path
         id="path302"
         style="fill:#ffffff;fill-opacity:1;fill-rule:nonzero;stroke:none"
         d="m 3753.68,2531.61 10.24,-5.54 -4.6,-7.71 -10.34,6.11 0.19,-11.37 h -8.84 l 0.09,11.46 -10.34,-6.2 -4.51,7.71 10.25,5.54 -10.25,5.64 4.51,7.71 10.34,-6.2 -0.09,11.46 h 8.84 l -0.19,-11.46 10.34,6.2 4.6,-7.71 -10.24,-5.64" /><path
         id="path304"
         style="fill:#f9a95e;fill-opacity:1;fill-rule:nonzero;stroke:none"
         d="m 3121.41,2215.87 c 57.21,-8.86 112.72,-185.03 136.81,-199.6 24.1,-14.56 3.35,165.02 3.35,165.02 l 45.83,6.16 c 0,0 54.2,-271.26 -24.88,-269.27 -60.24,1.52 -132,102.28 -149.59,153.5 l -11.52,144.19" /><path
         id="path306"
         style="fill:#e8e8e7;fill-opacity:1;fill-rule:nonzero;stroke:none"
         d="m 3215.81,1951.68 c -14.77,13.23 -28.8,29.21 -41.11,45.74 0,0.01 0.01,0.03 0.01,0.05 12.31,-16.54 26.33,-32.54 41.1,-45.79 m 45.03,63.75 c -0.81,0 -1.68,0.28 -2.62,0.84 -1.8,1.1 -3.79,3.1 -5.93,5.87 2.14,-2.76 4.11,-4.74 5.91,-5.83 0.94,-0.56 1.82,-0.84 2.63,-0.84 7.9,0 9.65,26.18 8.88,57.75 0.78,-31.58 -0.96,-57.79 -8.87,-57.79 m -99.03,169.81 c -13.1,16.79 -26.7,28.5 -40.4,30.63 l 0.18,-2.22 h -0.01 l -0.18,2.26 c 13.7,-2.13 27.31,-13.86 40.41,-30.67" /><path
         id="path308"
         style="fill:#e39953;fill-opacity:1;fill-rule:nonzero;stroke:none"
         d="m 3283.37,1918.2 c -0.29,0 -0.58,0.01 -0.87,0.01 -21.72,0.54 -45,14.03 -66.69,33.47 -14.77,13.25 -28.79,29.25 -41.1,45.79 9.97,58.1 -15.62,105.77 -33.03,130.33 -0.45,11.35 -1.08,20.87 -1.88,28.42 -6,55.09 -15.4,57.19 -15.4,57.19 0,0 -0.98,0.09 -2.81,0.24 l -0.18,2.22 c 13.7,-2.13 27.3,-13.84 40.4,-30.63 37.49,-48.12 70.85,-137.85 90.48,-163.1 2.14,-2.77 4.13,-4.77 5.93,-5.87 0.94,-0.56 1.81,-0.84 2.62,-0.84 7.91,0 9.65,26.21 8.87,57.79 -0.89,36.63 -5.17,80.49 -7.12,99.07 1.15,-1.31 1.87,-2.01 1.87,-2.01 l 22.38,-98.08 24.56,8.63 -3.98,106.49 c 1.15,-5.77 52.92,-269.12 -24.05,-269.12" /><path
         id="path310"
         style="fill:#b7b7b5;fill-opacity:1;fill-rule:nonzero;stroke:none"
         d="m 3174.7,1997.42 v 0 c -13.1,17.63 -24.27,35.9 -32.3,52.07 0,0.01 0,0.02 0,0.03 8.02,-16.17 19.19,-34.42 32.31,-52.05 0,-0.02 -0.01,-0.04 -0.01,-0.05" /><path
         id="path312"
         style="fill:#b47944;fill-opacity:1;fill-rule:nonzero;stroke:none"
         d="m 3174.71,1997.47 c -13.12,17.63 -24.29,35.88 -32.31,52.05 0.35,31.42 0.1,57.82 -0.72,78.28 17.41,-24.56 43,-72.23 33.03,-130.33" /><path
         id="path314"
         style="fill:#1d2a30;fill-opacity:1;fill-rule:nonzero;stroke:none"
         d="m 2910.77,2580.01 c 0,0 -101.87,1.16 -96.92,-138.86 4.94,-140.01 102.85,-142.02 70.22,-182.57 0,0 81.76,-41.53 184.78,0 0,0 -18.01,7.15 -9.42,32.85 8.6,25.69 55.81,62.47 60.39,116.68 4.57,54.21 -103.66,185.92 -209.05,171.9" /><path
         id="path316"
         style="fill:#1d2a30;fill-opacity:1;fill-rule:nonzero;stroke:none"
         d="m 3011.45,2311.86 c 0,0 130.04,24.01 108.33,147.63 -17.8,101.34 -65.04,133.85 -108.33,148.35 -36.75,12.32 -76.03,1.23 -103.09,-34.58 0,0 -88.2,24.97 -72.9,-120.13 15.31,-145.1 111.18,-207.35 175.99,-141.27" /><path
         id="path318"
         style="fill:#f9a95e;fill-opacity:1;fill-rule:nonzero;stroke:none"
         d="m 3248.47,240.73 -57.82,29.579 21.01,86.351 19.39,79.18 72.87,-23.809 -29.32,-90.711 -26.13,-80.59" /><path
         id="path320"
         style="fill:#1d2a30;fill-opacity:1;fill-rule:nonzero;stroke:none"
         d="m 3174.61,283.879 c 3.4,6.43 80.98,-38.59 80.98,-38.59 0,0 24.31,-74.68 66.58,-109.801 42.26,-35.117 1.19,-50.5192 -52.32,-23.859 -53.51,26.66 -94.35,47 -132.37,65.941 -38.03,18.942 1.88,39.5 37.13,106.309" /><path
         id="path322"
         style="fill:#4870c0;fill-opacity:1;fill-rule:nonzero;stroke:none"
         d="m 3294,242.309 c -1.4,1.031 -3.01,1.601 -4.88,1.722 -7.15,0.489 -16.55,-5.699 -22.33,-10.371 14.11,-1.398 28.68,-0.89 30.69,2.621 0.62,1.09 -0.69,3.039 -1.53,4.098 z m -26.63,-14.137 c 9.32,-10.891 21.79,-22.613 27.12,-21.383 0.46,0.109 1.88,0.43 2.64,3.973 0.29,1.32 -0.01,2.609 -0.9,3.949 -4.11,6.18 -18.88,10.988 -28.86,13.461 z m 14.57,-20.883 c -9.79,7.231 -19.88,19.742 -22.56,23.191 l -0.41,0.762 -0.09,0.879 v 0.008 l 0.13,0.613 v 0 0 l 0.58,0.887 c 0.74,0.723 16.75,16.012 29.85,15.113 4.17,-0.273 7.59,-2.121 10.23,-5.441 2.79,-3.539 3.43,-6.699 1.91,-9.36 -2.35,-4.101 -10.16,-5.472 -18.41,-5.711 7.1,-2.718 13.94,-6.351 16.99,-10.898 1.61,-2.441 2.14,-4.98 1.58,-7.562 -1.16,-5.36 -4.01,-7.079 -6.19,-7.579 -3.81,-0.871 -8.67,1.438 -13.61,5.098" /><path
         id="path324"
         style="fill:#cecdcc;fill-opacity:1;fill-rule:nonzero;stroke:none"
         d="m 3211.24,354.949 -0.18,0.11 6.65,26.992 0.15,-0.071 -6.2,-25.32 -0.42,-1.711" /><path
         id="path326"
         style="fill:#ca8849;fill-opacity:1;fill-rule:nonzero;stroke:none"
         d="m 3273.92,319.512 -62.68,35.437 0.42,1.711 6.2,25.32 20.63,-9.121 46.1,-20.41 -10.67,-32.937" /><path
         id="path328"
         style="fill:#f9a95e;fill-opacity:1;fill-rule:nonzero;stroke:none"
         d="m 3146.52,168.52 h -66.08 l -18.93,84.949 -17.22,77.953 77.32,11.769 13.23,-92.48 11.68,-82.191" /><path
         id="path330"
         style="fill:#1d2a30;fill-opacity:1;fill-rule:nonzero;stroke:none"
         d="m 3058.55,171.141 c 0.18,7.289 89.69,1.589 89.69,1.589 0,0 55.06,-56.019 108.55,-68.609 53.5,-12.5819 23.6,-44.6796 -36.18,-44.6796 -59.79,0 -105.41,0 -147.9,0 -42.47,0 -15.92,36.1875 -14.16,111.6996" /><path
         id="path332"
         style="fill:#4870c0;fill-opacity:1;fill-rule:nonzero;stroke:none"
         d="m 3182.44,187.309 c -1.2,0 -2.41,-0.258 -3.63,-0.77 -6.61,-2.738 -12.26,-12.48 -15.36,-19.238 13.26,5.031 26.07,12.008 26.3,16.031 0.07,1.25 -1.97,2.406 -3.19,2.988 -1.38,0.649 -2.76,0.989 -4.12,0.989 z m -16.02,-24.649 c 13.19,-5.59 29.59,-10.531 33.81,-7.051 0.37,0.301 1.48,1.223 0.59,4.723 -0.33,1.309 -1.17,2.34 -2.56,3.137 -6.45,3.703 -21.8,1.41 -31.84,-0.809 z m 28.91,-12.84 c -12.51,0 -32.39,9.102 -37.1,11.328 l -0.79,0.622 h -0.01 l -0.32,0.5 -0.08,1.8 c 0.31,0.891 7.83,21.789 19.97,26.828 3.85,1.614 7.75,1.493 11.58,-0.308 4.08,-1.942 6.06,-4.469 5.88,-7.531 -0.27,-4.7 -6.65,-9.43 -13.92,-13.297 7.57,0.738 15.32,0.519 20.07,-2.203 2.52,-1.457 4.13,-3.5 4.78,-6.067 1.35,-5.301 -0.43,-8.113 -2.17,-9.543 -1.85,-1.519 -4.62,-2.129 -7.89,-2.129" /><path
         id="path334"
         style="fill:#cecdcc;fill-opacity:1;fill-rule:nonzero;stroke:none"
         d="m 3061.89,251.789 -0.22,0.012 -9.44,42.988 h 0.15 l 9.13,-41.32 0.38,-1.68" /><path
         id="path336"
         style="fill:#ca8849;fill-opacity:1;fill-rule:nonzero;stroke:none"
         d="m 3135.01,248.828 -73.12,2.961 -0.38,1.68 -9.13,41.32 h 76.1 l 6.53,-45.961" /><path
         id="path338"
         style="fill:#1d2a30;fill-opacity:1;fill-rule:nonzero;stroke:none"
         d="m 2824.18,1724.18 162.36,26.01 147.05,29.99 39.58,-239.59 c 0,0 207.09,-300.05 257.29,-506.33 C 3480.66,827.988 3292.44,349 3292.44,349 l -86.57,38.289 c 0,0 60.06,460.481 58.63,515.871 -0.92,35.988 -119.04,202 -201.63,313.82 -2.32,-28.02 24.41,-308.152 24.41,-308.152 l 58.35,-614.039 H 3036.99 C 2662.17,1458.29 2824.18,1724.18 2824.18,1724.18" /><path
         id="path340"
         style="fill:#ffffff;fill-opacity:1;fill-rule:nonzero;stroke:none"
         d="m 3292.41,348.992 -7.76,3.43 0.01,0.027 7.76,-3.437 c 0,-0.012 -0.01,-0.02 -0.01,-0.02" /><path
         id="path342"
         style="fill:#fddec1;fill-opacity:1;fill-rule:nonzero;stroke:none"
         d="m 3284.65,352.422 -0.06,0.027 0.01,0.02 0.06,-0.02 -0.01,-0.027" /><path
         id="path344"
         style="fill:#ecd0b9;fill-opacity:1;fill-rule:nonzero;stroke:none"
         d="m 3284.59,352.449 -46.1,20.41 46.11,-20.39 -0.01,-0.02" /><path
         id="path346"
         style="fill:#d4e1f5;fill-opacity:1;fill-rule:nonzero;stroke:none"
         d="m 3431.75,852.059 h -0.04 c 1.32,9.972 2.48,19.832 3.46,29.55 h 0.03 c -0.98,-9.718 -2.14,-19.578 -3.45,-29.55" /><path
         id="path348"
         style="fill:#ffffff;fill-opacity:1;fill-rule:nonzero;stroke:none"
         d="m 3260.06,1403.87 c -48.08,80.5 -86.89,136.72 -86.89,136.72 l -39.58,239.59 -2.33,-0.48 v 0.01 l 2.35,0.48 39.6,-239.6 c 0,0 38.78,-56.2 86.85,-136.67 v -0.05" /><path
         id="path350"
         style="fill:#d4e1f5;fill-opacity:1;fill-rule:nonzero;stroke:none"
         d="m 3305.5,1324.95 h -0.03 c -15.44,27.94 -30.85,54.55 -45.41,78.92 v 0.05 c 14.57,-24.39 29.99,-51.01 45.44,-78.97" /><path
         id="path352"
         style="fill:#ffffff;fill-opacity:1;fill-rule:nonzero;stroke:none"
         d="m 2836.32,1726.13 v 0 l 150.19,24.06 79,16.11 h 0.05 l -79.02,-16.11 -150.22,-24.06" /><path
         id="path354"
         style="fill:#ebf3fb;fill-opacity:1;fill-rule:nonzero;stroke:none"
         d="m 3435.2,881.609 h -0.03 c 5.85,57.903 5.46,110.883 -4.71,152.651 -21.89,89.96 -73.61,197.73 -124.99,290.69 h 0.03 c 51.39,-92.96 103.12,-200.74 125.01,-290.66 10.17,-41.79 10.55,-94.751 4.69,-152.681" /><path
         id="path356"
         style="fill:#ebf3fb;fill-opacity:1;fill-rule:nonzero;stroke:none"
         d="m 3357.69,537.879 c 29.28,94.332 60.3,210.223 74.02,314.18 h 0.04 c -13.74,-103.957 -44.77,-219.86 -74.06,-314.18" /><path
         id="path358"
         style="fill:#a5adad;fill-opacity:1;fill-rule:nonzero;stroke:none"
         d="m 2824.21,1724.18 c 0,0.01 0,0.01 0,0.01 l 12.11,1.94 v 0 l -12.11,-1.95" /><path
         id="path360"
         style="fill:#ffffff;fill-opacity:1;fill-rule:nonzero;stroke:none"
         d="m 3117.39,591.988 -29.04,305.633 h 0.02 l 29.02,-305.633 m -29.26,308.133 h -0.02 l -0.83,8.707 c 0,0 -26.73,280.132 -24.41,308.152 0.01,-0.02 0.02,-0.03 0.04,-0.05 -2.17,-26.52 24.4,-308.141 24.4,-308.141 l 0.82,-8.668" /><path
         id="path362"
         style="fill:#fafafa;fill-opacity:1;fill-rule:nonzero;stroke:none"
         d="m 3088.37,897.621 h -0.02 l -0.24,2.5 h 0.02 l 0.24,-2.5" /><path
         id="path364"
         style="fill:#ffffff;fill-opacity:1;fill-rule:nonzero;stroke:none"
         d="m 3257.88,817.68 c 0.78,7.621 1.51,14.929 2.18,21.82 v -0.012 c -0.67,-6.886 -1.4,-14.168 -2.18,-21.808" /><path
         id="path366"
         style="fill:#d4e1f5;fill-opacity:1;fill-rule:nonzero;stroke:none"
         d="m 3260.06,839.488 v 0.012 c 1.6,16.559 2.83,30.809 3.6,42 -0.77,-11.191 -2,-25.449 -3.6,-42.012" /><path
         id="path368"
         style="fill:#a5adad;fill-opacity:1;fill-rule:nonzero;stroke:none"
         d="m 3145.61,294.789 h -108.6 C 2663.17,1455.31 2823.38,1722.82 2824.21,1724.18 l 12.11,1.95 150.22,24.06 79.02,16.11 65.14,4.51 c 0.19,2.98 0.38,5.94 0.56,8.89 l 2.33,0.48 39.58,-239.59 c 0,0 38.81,-56.22 86.89,-136.72 v 0 c 14.56,-24.37 29.97,-50.98 45.41,-78.92 51.38,-92.96 103.1,-200.73 124.99,-290.69 10.17,-41.768 10.56,-94.748 4.71,-152.651 -0.98,-9.718 -2.14,-19.578 -3.46,-29.55 -13.72,-103.957 -44.74,-219.848 -74.02,-314.18 -33.43,-107.637 -64.61,-187.188 -65.27,-188.867 l -7.76,3.437 -0.06,0.02 -46.11,20.39 -32.58,14.43 c 0,0 36.62,281 51.97,430.391 0.78,7.64 1.51,14.922 2.18,21.808 v 0 c 1.6,16.563 2.83,30.821 3.6,42.012 0.66,9.691 0.96,17.09 0.85,21.691 -0.7,28.899 -77,141.599 -149.7,242.699 v 0 c -28.6,148.19 -62.3,292.5 -62.3,292.5 -7.6,-116.91 10.4,-221.41 10.4,-221.41 0,-0.01 0,-0.03 0,-0.05 -0.02,0.02 -0.03,0.03 -0.04,0.05 -2.32,-28.02 24.41,-308.152 24.41,-308.152 l 0.83,-8.707 0.24,-2.5 29.04,-305.633 28.22,-297.199 m -255.17,1027.201 4.15,-41.93 -73.23,-10.49 11.72,-110.77 81.09,11.84 -20.14,170.14 -84.69,-15.83 -2.47,-53.4 82.29,13.2 1.28,37.24 m -12.5,352.17 c 0,0 -24.41,-66.33 -84.75,-90.07 v -23.75 c 0,0 88.46,37.55 100.84,100.11 l -16.09,13.71" /><path
         id="path370"
         style="fill:#4870c0;fill-opacity:1;fill-rule:nonzero;stroke:none"
         d="m 3201.37,426.012 127.73,-43.981 -28.46,-43.769 -104.97,37.468 5.7,50.282" /><path
         id="path372"
         style="fill:#4870c0;fill-opacity:1;fill-rule:nonzero;stroke:none"
         d="m 3021.41,309.531 136.55,18.688 -6.73,-51.02 -112.81,-14.199 -17.01,46.531" /><path
         id="path374"
         style="fill:#80888b;fill-opacity:1;fill-rule:nonzero;stroke:none"
         d="m 3114.81,1145.89 c -17.9,24.9 -35.6,48.99 -51.9,71.09 v 0 c 0,0 -18,104.5 -10.4,221.41 0,0 33.7,-144.31 62.3,-292.5" /><path
         id="path376"
         style="fill:#4870c0;fill-opacity:1;fill-rule:nonzero;stroke:none"
         d="m 3130.7,1770.81 -296.1,-20.5 c 0,0 -4,158.61 -27.6,241.11 -3.2,11.1 -6.7,22.7 -10.6,35.09 -5.5,17.41 -11.8,36.11 -19,56.51 -1.7,4.8 -6,16.8 -11.2,30.7 -8.7,23.7 -2,48.9 14.5,65.09 7.9,7.9 18.1,13.71 29.9,16.31 21.8,4.8 43.3,9.29 55,11.1 44.3,6.99 89,11.3 134,12.7 38,0.29 79.7,-2.2 104,-3.9 12.8,-0.9 20.8,-1.61 20.8,-1.61 0,0 9.4,-2.1 15.4,-57.19 5.5,-51.8 2.9,-197 -9.1,-385.41" /><path
         id="path378"
         style="fill:#f9a95e;fill-opacity:1;fill-rule:nonzero;stroke:none"
         d="m 2989.67,2156.12 c -74.68,13.45 -95.64,46.71 -95.64,46.71 49.99,42.58 14.33,122.58 14.33,122.58 l 89.63,-21.51 c -3.14,-14.83 -4.79,-27.32 -5.48,-37.91 -3.48,-54.89 21.33,-56.69 21.33,-56.69 14.37,-30.55 -24.17,-53.18 -24.17,-53.18" /><path
         id="path380"
         style="fill:#ca8849;fill-opacity:1;fill-rule:nonzero;stroke:none"
         d="m 2992.51,2265.99 c -43.11,12.33 -84.15,59.42 -84.15,59.42 l 89.63,-21.51 c -3.14,-14.83 -4.79,-27.32 -5.48,-37.91 v 0" /><path
         id="path382"
         style="fill:#f9a95e;fill-opacity:1;fill-rule:nonzero;stroke:none"
         d="m 2991.36,2560.42 c 78.56,-7.06 100.06,-51.4 98.53,-132.88 -1.91,-101.81 -30.8,-171.67 -127.09,-141.23 -130.76,41.34 -101.91,285.84 28.56,274.11" /><path
         id="path384"
         style="fill:#ec782f;fill-opacity:1;fill-rule:nonzero;stroke:none"
         d="m 3039.5,2436.5 c 0,0 9.04,-21.49 19.93,-34.63 0,0 -7.68,-10.08 -21.51,-7.03 l 1.58,41.66" /><path
         id="path386"
         style="fill:#1d2a30;fill-opacity:1;fill-rule:nonzero;stroke:none"
         d="m 2992,2447.25 c -0.43,-6.46 -4.28,-11.47 -8.59,-11.19 -4.31,0.29 -7.45,5.76 -7.02,12.23 0.43,6.47 4.27,11.48 8.58,11.19 4.31,-0.28 7.46,-5.76 7.03,-12.23" /><path
         id="path388"
         style="fill:#1d2a30;fill-opacity:1;fill-rule:nonzero;stroke:none"
         d="m 2983.15,2459.29 14.43,4.58 c 0,0 -7.79,-11.37 -14.43,-4.58" /><path
         id="path390"
         style="fill:#1d2a30;fill-opacity:1;fill-rule:nonzero;stroke:none"
         d="m 3072.48,2443.26 c -0.43,-6.47 -4.27,-11.48 -8.58,-11.19 -4.32,0.28 -7.46,5.76 -7.03,12.22 0.42,6.47 4.27,11.48 8.58,11.19 4.31,-0.28 7.46,-5.75 7.03,-12.22" /><path
         id="path392"
         style="fill:#1d2a30;fill-opacity:1;fill-rule:nonzero;stroke:none"
         d="m 3063.63,2455.29 14.43,4.58 c 0,0 -7.79,-11.36 -14.43,-4.58" /><path
         id="path394"
         style="fill:#1d2a30;fill-opacity:1;fill-rule:nonzero;stroke:none"
         d="m 2996.87,2505.11 c -0.18,0.04 -4.17,0.92 -9.91,0.92 -8.01,0 -19.76,-1.71 -28.61,-10.74 -1.39,-1.44 -1.36,-3.73 0.07,-5.13 1.43,-1.39 3.73,-1.36 5.12,0.07 6.72,6.95 16.36,8.57 23.42,8.56 2.49,0 4.62,-0.2 6.1,-0.39 l 1.71,-0.26 0.53,-0.1 c 1.95,-0.44 3.89,0.79 4.32,2.75 0.44,1.95 -0.79,3.88 -2.75,4.32" /><path
         id="path396"
         style="fill:#1d2a30;fill-opacity:1;fill-rule:nonzero;stroke:none"
         d="m 3054.43,2496.26 -0.04,0.16 0.04,-0.16 v 0 l -0.04,0.16 0.04,-0.16 c 0.19,0.05 1.79,0.41 4.36,0.41 4.98,-0.02 13.53,-1.31 23.16,-9.01 1.56,-1.25 3.84,-1 5.09,0.56 1.25,1.56 1,3.84 -0.56,5.09 -10.98,8.84 -21.42,10.62 -27.69,10.61 -3.72,0 -6,-0.6 -6.25,-0.67 -1.93,-0.52 -3.07,-2.51 -2.55,-4.44 0.52,-1.93 2.51,-3.07 4.44,-2.55" /><path
         id="path398"
         style="fill:#1d2a30;fill-opacity:1;fill-rule:nonzero;stroke:none"
         d="m 2893.59,2435.73 c 0,0 42.53,61.25 41.45,111.58 0,0 161.41,49.6 154.87,-109.11 0,0 27.83,138.94 -106.93,154.21 -134.56,15.25 -151.96,-182.35 -87.52,-247.49 0,0 -28.22,52.49 -1.87,90.81" /><path
         id="path400"
         style="fill:#f9a95e;fill-opacity:1;fill-rule:nonzero;stroke:none"
         d="m 2904.93,2418 c 0.61,12.69 -10.52,35.28 -34.27,34.83 -24.58,-0.47 -40.68,-49.41 18.79,-66.87 8.54,-2.5 14.2,5.55 15.48,32.04" /><path
         id="path402"
         style="fill:#1d2a30;fill-opacity:1;fill-rule:nonzero;stroke:none"
         d="m 3032.25,2365.3 -0.4,-0.02 -1.34,-0.03 c -3.36,-0.01 -10.99,0.48 -18.43,3.89 -7.45,3.45 -14.7,9.5 -18.32,21.42 -0.57,1.87 -2.54,2.93 -4.41,2.37 -1.88,-0.57 -2.94,-2.54 -2.37,-4.41 4.16,-13.97 13.32,-21.83 22.16,-25.82 8.86,-4.03 17.4,-4.52 21.37,-4.53 1.39,0 2.23,0.07 2.31,0.08 1.95,0.15 3.4,1.86 3.24,3.81 -0.16,1.95 -1.86,3.4 -3.81,3.24" /><path
         id="path404"
         style="fill:#1d2a30;fill-opacity:1;fill-rule:nonzero;stroke:none"
         d="m 2936.37,2547.02 1.25,0.16 c 2.57,0.29 8.89,0.89 17.58,0.88 17.43,0.01 44.35,-2.41 69.59,-14.28 25.24,-11.9 48.83,-32.93 60.53,-70.95 0.57,-1.87 2.55,-2.92 4.42,-2.35 1.87,0.58 2.92,2.56 2.35,4.43 -12.22,39.98 -37.64,62.82 -64.29,75.28 -26.67,12.51 -54.53,14.95 -72.6,14.95 -12.02,0 -19.71,-1.09 -19.84,-1.11 -1.93,-0.27 -3.28,-2.07 -3,-4 0.28,-1.94 2.07,-3.28 4.01,-3.01" /><path
         id="path406"
         style="fill:#f9a95e;fill-opacity:1;fill-rule:nonzero;stroke:none"
         d="m 3291.99,2291.41 c 0,0 41.28,0.74 42.72,-6.54 1.43,-7.27 -1.27,-67.66 -6.76,-76.16 -5.5,-8.49 -20.55,-20.74 -20.55,-20.74 l 4,-107.14 -24.56,-8.63 -22.38,98.08 c 0,0 -25.3,24.71 -17.89,56.05 7.41,31.35 45.42,65.08 45.42,65.08" /><path
         id="path408"
         style="fill:#e39953;fill-opacity:1;fill-rule:nonzero;stroke:none"
         d="m 3286.84,2072.2 -22.38,98.08 c 0,0 -19.29,18.83 -19.25,44.47 0,3.73 0.42,7.6 1.36,11.58 0.57,2.43 1.33,4.86 2.23,7.3 l 17.55,1.36 32.68,2.53 c 2.94,0.23 5.52,2.19 6.72,4.8 0.39,0.61 0.63,1.26 0.66,1.96 l 0.02,0.73 c 0.01,0.06 0.01,0.13 0.01,0.19 l 1.62,45.94 c 11.76,-0.54 25.82,-2.07 26.65,-6.27 0.25,-1.3 0.38,-4.33 0.38,-8.45 -0.01,-18.85 -2.63,-60.74 -7.14,-67.71 -5.5,-8.49 -20.55,-20.74 -20.55,-20.74 v 0 0 l 4,-107.14 -24.56,-8.63" /><path
         id="path410"
         style="fill:#1d2a30;fill-opacity:1;fill-rule:nonzero;stroke:none"
         d="m 3221.91,2238.64 c -0.14,-3.93 2.95,-6.87 6.9,-6.56 l 70.22,5.44 c 3.95,0.31 7.26,3.75 7.41,7.68 l 4.92,139.82 c 0.14,3.93 -3.02,7.83 -6.96,7.53 l -70.23,-5.45 c -3.95,-0.31 -7.19,-4.71 -7.33,-8.64 l -4.93,-139.82" /><path
         id="path412"
         style="fill:#ffffff;fill-opacity:1;fill-rule:nonzero;stroke:none"
         d="m 3235.37,2232.59 13.43,1.04 v 0 l -13.23,-1.03 c -0.07,-0.01 -0.13,-0.01 -0.2,-0.01" /><path
         id="path414"
         style="fill:#f3cdac;fill-opacity:1;fill-rule:nonzero;stroke:none"
         d="m 3248.8,2233.63 v 0 l 17.55,1.36 -17.55,-1.36 m 56.95,8.69 c 0.38,0.84 0.62,1.75 0.68,2.69 l -0.02,-0.73 c -0.03,-0.7 -0.27,-1.35 -0.66,-1.96" /><path
         id="path416"
         style="fill:#ffffff;fill-opacity:1;fill-rule:nonzero;stroke:none"
         d="m 3309.65,2336.39 1.71,48.63 c 0.04,0.94 -0.12,1.88 -0.43,2.75 0.32,-0.57 0.49,-1.18 0.47,-1.83 l -1.75,-49.55 m -68.94,51.21 c 0.07,0.01 0.14,0.02 0.22,0.02 l 59.55,4.62 c 0.04,0.01 0.09,0.01 0.13,0.01 l -59.9,-4.65" /><path
         id="path418"
         style="fill:#8e989b;fill-opacity:1;fill-rule:nonzero;stroke:none"
         d="m 3234.94,2232.57 c -3.53,0 -5.55,2.46 -5.41,6.23 l 5.03,141.18 c 0.13,3.9 2.36,7.21 6.15,7.62 l 59.9,4.65 c 0.17,0.01 0.35,0.02 0.53,0.02 3.36,0 8.27,-1.76 9.79,-4.5 0.31,-0.87 0.47,-1.81 0.43,-2.75 l -1.71,-48.63 -3.22,-91.38 c -0.06,-0.94 -0.3,-1.85 -0.68,-2.69 -1.88,-2.91 -7.33,-4.84 -10.63,-5.1 l -28.77,-2.23 -17.55,-1.36 -13.43,-1.04 c -0.14,-0.01 -0.29,-0.02 -0.43,-0.02" /><path
         id="path420"
         style="fill:#f9a95e;fill-opacity:1;fill-rule:nonzero;stroke:none"
         d="m 3150.52,2132.43 26.72,62.24 c 0,0 8.67,83.58 12.91,92.52 4.23,8.95 72.18,5.6 79.53,6.18 7.34,0.57 5.99,-82.87 -1.12,-91.61 -7.1,-8.74 -34.86,-15.82 -34.86,-15.82 l -42.68,-82.85 -40.5,29.34" /><path
         id="path422"
         style="fill:#f9a95e;fill-opacity:1;fill-rule:nonzero;stroke:none"
         d="m 3075.3,2166.22 c -7.2,-28.6 -34.9,-50.6 -92.2,-50.11 -36.4,0.4 -66.3,14.01 -89.6,30.8 -27,19.51 -44.9,43.11 -53,55.21 8.3,1.49 16.7,2.8 25.1,4.1 44.3,6.99 89,11.3 134,12.7 23.7,0.2 48.8,-0.71 70.2,-1.8 7.1,-17.1 9.5,-35 5.5,-50.9" /><path
         id="path424"
         style="fill:#1d2a30;fill-opacity:1;fill-rule:nonzero;stroke:none"
         d="m 2833.78,1772.7 -12.42,-54.15 319.65,16.73 -9.17,53.56 -298.06,-16.14" /><path
         id="path426"
         style="fill:#ffffff;fill-opacity:1;fill-rule:nonzero;stroke:none"
         d="m 3004.79,1772.28 -4.97,-0.53 3.68,-34.61 c 0.67,-6.17 5.86,-10.77 11.97,-10.77 l 0.96,0.03 h 0.01 l 46.14,3.68 c 6.33,0.51 11.09,5.77 11.09,11.99 l -0.05,1.15 -3.25,34.12 c -0.6,6.21 -5.8,10.9 -11.97,10.9 l -0.85,-0.03 h 0.02 l -46.59,-3.17 v 0 c -6.38,-0.45 -11.22,-5.74 -11.22,-12.01 l 0.06,-1.28 4.97,0.53 4.98,0.52 -0.01,0.23 c -0.01,1.04 0.82,1.97 1.9,2.03 v 0 l 46.59,3.18 h 0.01 0.14 c 1.01,0 1.92,-0.79 2.01,-1.85 l 3.26,-34.12 v -0.2 c 0.01,-1.02 -0.81,-1.95 -1.88,-2.03 l -46.15,-3.67 h 0.01 -0.18 c -1.01,-0.01 -1.92,0.78 -2.02,1.83 l -3.68,34.61 -4.98,-0.53" /><path
         id="path428"
         style="fill:#ffffff;fill-opacity:1;fill-rule:nonzero;stroke:none"
         d="m 3042.64,1755.78 h 17.14 c 2.76,0 5,2.24 5,5 0,2.76 -2.24,5 -5,5 h -17.14 c -2.76,0 -5,-2.24 -5,-5 0,-2.76 2.24,-5 5,-5" /><path
         id="path430"
         style="fill:#395eb4;fill-opacity:1;fill-rule:nonzero;stroke:none"
         d="m 2860.59,1999.31 c -23.2,0 -46.76,13.7 -64.19,27.2 v 0 c -4.61,14.6 -9.79,30.1 -15.58,46.75 -1.12,3.21 -2.26,6.46 -3.42,9.76 -1.7,4.8 -6,16.8 -11.2,30.7 -2.6,7.08 -3.82,14.3 -3.82,21.37 0,16.58 6.75,32.37 18.32,43.72 54.4,-51.29 135,-163.79 97.2,-176.69 -5.68,-1.95 -11.48,-2.81 -17.31,-2.81" /><path
         id="path432"
         style="fill:#f9a95e;fill-opacity:1;fill-rule:nonzero;stroke:none"
         d="m 2779.89,2185.37 c 23.96,19.37 59.31,14.35 76.93,-10.93 43.86,-62.91 117.58,-167.49 126.46,-172.63 12.73,-7.37 108.57,80.93 193.96,192.86 l 52.28,-19.66 c 0,0 -135.09,-277.8 -231.05,-278.98 -71.85,-0.89 -179.54,144.9 -229.11,218.2 -15.47,22.89 -10.95,53.77 10.53,71.14" /><path
         id="path434"
         style="fill:#80888b;fill-opacity:1;fill-rule:nonzero;stroke:none"
         d="m 2793.19,1560.34 v 23.75 c 60.34,23.74 84.75,90.07 84.75,90.07 l 16.09,-13.71 c -12.38,-62.56 -100.84,-100.11 -100.84,-100.11" /><path
         id="path436"
         style="fill:#80888b;fill-opacity:1;fill-rule:nonzero;stroke:none"
         d="m 2833.08,1158.8 -11.72,110.77 73.23,10.49 -4.15,41.93 -1.28,-37.24 -82.29,-13.2 2.47,53.4 84.69,15.83 20.14,-170.14 -81.09,-11.84" /></g></g></svg>