<?xml version="1.0" encoding="UTF-8" standalone="no"?>
<!-- Created with Inkscape (http://www.inkscape.org/) -->

<svg
   version="1.1"
   id="svg2"
   xml:space="preserve"
   width="4946.6665"
   height="4946.6665"
   viewBox="0 0 4946.6665 4946.6665"
   sodipodi:docname="pesquisas.eps"
   xmlns:inkscape="http://www.inkscape.org/namespaces/inkscape"
   xmlns:sodipodi="http://sodipodi.sourceforge.net/DTD/sodipodi-0.dtd"
   xmlns="http://www.w3.org/2000/svg"
   xmlns:svg="http://www.w3.org/2000/svg"><defs
     id="defs6"><clipPath
       clipPathUnits="userSpaceOnUse"
       id="clipPath20"><path
         d="m 18717,5034.1 c -1660.9,0 -2929.6,232.2 -3435.7,335 -126.5,25.7 -261.2,53.1 -403.2,82.7 l 8157,148.3 c -1556.8,-430.8 -3051.6,-566 -4318.1,-566 M 9918.21,7279.7 C 9015.84,7831.2 8127.92,8544.7 7333.95,9478.4 3453.72,14041.5 4057.94,21230.5 7067.7,25976 c 550.53,868.1 3458.6,5685.9 9369.3,6458.5 586.6,76.7 1189.8,115.5 1800.6,115.5 2427.7,0 4985.1,-611.3 7190.8,-1883.1 -1090.7,-698.7 -2024.9,-1637 -2408.1,-2884.5 -21.8,-71 -42.3,-143 -61.7,-216.1 H 12790 c -521.1,61.8 -945.8,117.1 -1248.5,158.1 -21.1,2.9 -42,4.3 -62.7,4.3 -162,0 -307,-85.6 -388.7,-216 -674.9,-180.7 -1171.89,-796.4 -1171.89,-1528.3 V 7279.7 m 17374.89,334.4 -531.4,10437.1 c 166,45.9 344.1,84.6 536.3,123.4 1164.1,235.5 2464.5,1105.5 2846.4,2473.2 197.6,707.8 777.6,1411.8 1291.4,1926.4 1356.1,-5042.3 202.5,-10711.9 -2607.1,-13669.7 -562.3,-592 -1094.5,-973.9 -1514.9,-1275.5 -6.9,-5 -13.8,-9.9 -20.7,-14.9 m 3836.4,15963.2 c -480.1,70.2 -1056.6,140 -1640.8,176.9 326.3,490.4 596.3,1091.3 773.9,1842.9 341,-650.3 629.2,-1326.9 866.9,-2019.8"
         id="path18" /></clipPath><linearGradient
       x1="0"
       y1="0"
       x2="1"
       y2="0"
       gradientUnits="userSpaceOnUse"
       gradientTransform="matrix(-24484,30407.6,30407.6,24484,35564.4,-3087.1)"
       spreadMethod="pad"
       id="linearGradient26"><stop
         style="stop-opacity:1;stop-color:#dae3fe"
         offset="0"
         id="stop22" /><stop
         style="stop-opacity:1;stop-color:#e9effd"
         offset="1"
         id="stop24" /></linearGradient><clipPath
       clipPathUnits="userSpaceOnUse"
       id="clipPath42"><path
         d="m 30465.8,22858.2 c -1382.9,-57.9 -2867.3,-688.7 -3620.6,-1872 l -71.1,-112.9 c -164.2,-264.8 -1094.9,-2146.9 -1611.7,-3707.1 -6.5,-19.4 4.1,-40.4 23.5,-46.9 33,-10.9 49.6,25.4 46.4,22.2 360.2,881.4 877.4,1998.9 1289.3,2834.5 441.8,911.9 751,1529.4 1758.6,2120.9 1121.6,637 2193.1,702.6 2189.8,702 16.4,1.6 28.3,16.2 26.6,32.6 -1.6,15.7 -15.2,27.3 -30.8,26.7 z"
         id="path40" /></clipPath><linearGradient
       x1="0"
       y1="0"
       x2="1"
       y2="0"
       gradientUnits="userSpaceOnUse"
       gradientTransform="matrix(5336.33,0,0,-5336.33,25160.5,19987.8)"
       spreadMethod="pad"
       id="linearGradient48"><stop
         style="stop-opacity:1;stop-color:#dae3fe"
         offset="0"
         id="stop44" /><stop
         style="stop-opacity:1;stop-color:#e9effd"
         offset="1"
         id="stop46" /></linearGradient><clipPath
       clipPathUnits="userSpaceOnUse"
       id="clipPath58"><path
         d="m 10893.4,5379.6 c -537.4,0 -975.19,435.8 -975.19,975.5 v 924.6 18704.7 c 0,731.9 496.99,1347.6 1171.89,1528.3 -44.6,-71.1 -70.3,-155.5 -69.8,-246.6 l 121.1,-20577.2 c 1.1,-197.4 150.2,-362.8 346.6,-383.3 787.6,-82.5 1921.1,-114.9 3217.9,-114.9 4016.2,0 9591.7,311.1 11252.3,409.4 268.5,15.9 473.6,245.6 459.3,514.2 L 25376.3,26705 c -12,227.4 -200.4,402 -424.3,402 -11,0 -22.1,-0.4 -33.2,-1.2 -1045,-80.3 -2133.3,-113.6 -3221.3,-113.6 -3453.6,0 -6899,336 -8907.5,574.1 h 10168.6 1994.1 c 389.3,0 742.8,-160 996.3,-419.1 82,-83.8 153.6,-178 212.5,-280.5 106.3,-184.7 171.5,-396.5 183.1,-623.2 l 154.1,-3026.4 263,-5165.9 531.4,-10437.1 44.5,-874.3 c 29.5,-580.1 -427.1,-1069.3 -1007.8,-1079.9 l -3294.7,-59.8 -8157,-148.3 -3966.6,-72.1 c -6,-0.1 -12.1,-0.1 -18.1,-0.1"
         id="path56" /></clipPath><linearGradient
       x1="0"
       y1="0"
       x2="1"
       y2="0"
       gradientUnits="userSpaceOnUse"
       gradientTransform="matrix(-1237.26,36623.6,36623.6,1237.26,18622.9,6689.8)"
       spreadMethod="pad"
       id="linearGradient64"><stop
         style="stop-opacity:1;stop-color:#09005d"
         offset="0"
         id="stop60" /><stop
         style="stop-opacity:1;stop-color:#1a0f91"
         offset="1"
         id="stop62" /></linearGradient><clipPath
       clipPathUnits="userSpaceOnUse"
       id="clipPath76"><path
         d="m 10429.8,10168.2 c -20.3,0 -36.8,16.4 -36.8,36.8 v 421.8 c 0,20.4 16.5,36.9 36.8,36.9 20.4,0 36.9,-16.5 36.9,-36.9 V 10205 c 0,-20.4 -16.5,-36.8 -36.9,-36.8 z"
         id="path74" /></clipPath><linearGradient
       x1="0"
       y1="0"
       x2="1"
       y2="0"
       gradientUnits="userSpaceOnUse"
       gradientTransform="matrix(14022.6,-8908.48,-8908.48,-14022.6,8133.11,11875)"
       spreadMethod="pad"
       id="linearGradient82"><stop
         style="stop-opacity:1;stop-color:#a737d5"
         offset="0"
         id="stop78" /><stop
         style="stop-opacity:1;stop-color:#ef497a"
         offset="1"
         id="stop80" /></linearGradient><clipPath
       clipPathUnits="userSpaceOnUse"
       id="clipPath92"><path
         d="m 14705.9,6190.7 c -1296.8,0 -2430.3,32.4 -3217.9,114.9 -196.4,20.5 -345.5,185.9 -346.6,383.3 l -121.1,20577.2 c -0.5,91.1 25.2,175.5 69.8,246.6 81.7,130.4 226.7,216 388.7,216 20.7,0 41.6,-1.4 62.7,-4.3 302.7,-41 727.4,-96.3 1248.5,-158.1 2008.5,-238.1 5453.9,-574.1 8907.5,-574.1 1088,0 2176.3,33.3 3221.3,113.6 11.1,0.8 22.2,1.2 33.2,1.2 223.9,0 412.3,-174.6 424.3,-402 L 26417.5,7114.3 c 14.3,-268.6 -190.8,-498.3 -459.3,-514.2 -1660.6,-98.3 -7236.1,-409.4 -11252.3,-409.4 M 11678,27220.3 c -241,0 -442.8,-196.6 -441.3,-445.1 l 116.5,-19802.3 c 1.1,-190.1 144.6,-349.2 333.6,-369 757.9,-79.4 1848.7,-110.6 3096.6,-110.6 3865,0 9230.7,299.5 10828.7,394.1 258.4,15.3 455.8,236.3 442.1,494.8 l -1002,18853 c -11.7,218.8 -193,386.9 -408.4,386.9 -10.6,0 -21.3,-0.4 -32,-1.2 -1005.6,-77.2 -2053,-109.3 -3100,-109.3 -4185.9,0 -8359.4,512.9 -9773.5,704.6 -20.4,2.8 -40.5,4.1 -60.3,4.1"
         id="path90" /></clipPath><linearGradient
       x1="0"
       y1="0"
       x2="1"
       y2="0"
       gradientUnits="userSpaceOnUse"
       gradientTransform="matrix(-9896.6,-8103.25,-8103.25,9896.6,39910.3,34522.7)"
       spreadMethod="pad"
       id="linearGradient98"><stop
         style="stop-opacity:1;stop-color:#e1473d"
         offset="0"
         id="stop94" /><stop
         style="stop-opacity:1;stop-color:#e9605a"
         offset="1"
         id="stop96" /></linearGradient><clipPath
       clipPathUnits="userSpaceOnUse"
       id="clipPath108"><path
         d="m 14783.4,6493.3 c -1247.9,0 -2338.7,31.2 -3096.6,110.6 -189,19.8 -332.5,178.9 -333.6,369 l -116.5,19802.3 c -1.5,248.5 200.3,445.1 441.3,445.1 19.8,0 39.9,-1.3 60.3,-4.1 1414.1,-191.7 5587.6,-704.6 9773.5,-704.6 1047,0 2094.4,32.1 3100,109.3 10.7,0.8 21.4,1.2 32,1.2 215.4,0 396.7,-168.1 408.4,-386.9 l 1002,-18853 c 13.7,-258.5 -183.7,-479.5 -442.1,-494.8 -1598,-94.6 -6963.7,-394.1 -10828.7,-394.1 m -1828.3,2407.3 c -200.3,0 -346.6,-147.8 -295.4,-299 35.4,-104.6 156.8,-177.4 295.4,-177.4 0.9,0 1.8,0 2.7,0 l 11387.8,75.6 c 128.8,0.9 231.9,83.7 229.1,184.1 -2.8,97.6 -104.8,175.7 -230,176.2 l -11388.1,40.5 c -0.5,0 -1,0 -1.5,0 m 0,2056 c -200.3,0 -346.6,-147.8 -295.4,-298.9 35.4,-104.7 156.8,-177.5 295.4,-177.5 0.9,0 1.8,0 2.7,0 l 11387.8,75.7 c 128.8,0.9 231.9,83.7 229.1,184.1 -2.8,97.6 -104.8,175.7 -230,176.1 l -11388.1,40.5 c -0.5,0 -1,0 -1.5,0 m 0,2056.1 c -200.3,0 -346.6,-147.8 -295.4,-299 35.4,-104.6 156.8,-177.4 295.5,-177.4 0.8,0 1.7,0 2.6,0 l 11387.8,75.7 c 128.8,0.8 231.9,83.6 229.1,184 -2.8,97.6 -104.8,175.8 -230,176.2 l -11388.1,40.5 c -0.5,0 -1,0 -1.5,0 m 0,2056.1 c -200.3,0 -346.6,-147.9 -295.4,-299 35.4,-104.6 156.8,-177.4 295.4,-177.4 0.9,0 1.8,0 2.7,0 l 11387.8,75.6 c 128.8,0.9 231.9,83.7 229.1,184.1 -2.8,97.6 -104.8,175.7 -230,176.2 l -11388.1,40.5 c -0.5,0 -1,0 -1.5,0 m 7595.9,2645.7 c -79.2,0 -133.6,-62.9 -121.6,-142.6 l 27.3,-181.9 c 12.3,-81.8 90.1,-148.7 172.8,-148.7 h 2539.3 c 82.7,0 149.6,67.7 148.5,150.4 l -0.7,57.1 c -1,82.7 -69.5,153.2 -152.1,156.6 l -2607.1,109 c -2.2,0.1 -4.3,0.1 -6.4,0.1 m -5663.7,0 c -79.3,0 -133.6,-62.9 -121.6,-142.6 l 27.3,-181.9 c 12.3,-81.8 90,-148.7 172.8,-148.7 h 2539.3 c 82.7,0 149.5,67.7 148.5,150.4 l -0.7,57.1 c -1,82.7 -69.5,153.2 -152.1,156.6 l -2607.2,109 c -2.1,0.1 -4.2,0.1 -6.3,0.1 m -1866.4,1659.3 c -81.6,0 -106.5,-52.1 -55.2,-116.5 l 101.8,-127.9 c 51.6,-64.7 161.4,-117.6 244.1,-117.6 h 11109.6 c 82.8,0 146.4,61 141.5,135.6 -4.9,74.5 -76.6,136.1 -159.4,136.7 l -11380.9,89.7 c -0.5,0 -1,0 -1.5,0 m -0.1,753.5 c -81.5,0 -106.3,-52.1 -55.1,-116.4 l 101.8,-128 c 51.6,-64.7 161.4,-117.6 244.1,-117.6 h 11109.6 c 82.8,0 146.4,61 141.5,135.5 -4.9,74.6 -76.6,136.2 -159.4,136.8 l -11380.9,89.7 c -0.5,0 -1,0 -1.6,0 m 125.2,5480.3 c -155.1,0 -280,-129.7 -272.7,-285.9 l 187.7,-4041.9 c 6.3,-134.5 114.9,-241.3 249.4,-245.1 483.6,-13.7 1628.5,-42.3 2733.4,-42.3 605.3,0 1198.6,8.6 1664.8,32.9 149,7.8 266.8,128.3 271.7,277.4 25.2,758 80.1,2964.2 -92.6,3886.5 -27.9,149 -156,258.2 -307.4,263.5 l -4424.6,154.7 c -3.2,0.1 -6.5,0.2 -9.7,0.2 m 5927,-1795.1 c -80.9,0 -124.7,-62.1 -97.6,-139.2 l 28,-79.6 c 27.5,-78 117.7,-141.8 200.4,-141.8 H 23950 c 82.7,0 148.6,61 146.4,135.6 -2.1,74.5 -71.6,136.8 -154.3,138.2 l -4866.3,86.7 c -0.9,0.1 -1.9,0.1 -2.8,0.1 m 0,764.4 c -80.9,0 -124.7,-62.1 -97.6,-139.2 l 28,-79.5 c 27.5,-78 117.7,-141.9 200.4,-141.9 H 23950 c 82.7,0 148.6,61 146.4,135.6 -2.1,74.6 -71.6,136.8 -154.3,138.3 l -4866.3,86.7 c -0.9,0 -1.9,0 -2.8,0 m 0,753.5 c -80.9,0 -124.8,-62.1 -97.6,-139.2 l 28,-79.5 c 27.5,-78 117.7,-141.9 200.4,-141.9 H 23950 c 82.7,0 148.6,61 146.4,135.6 -2.1,74.6 -71.6,136.8 -154.3,138.3 l -4866.3,86.7 c -0.9,0 -1.9,0 -2.8,0"
         id="path106" /></clipPath><linearGradient
       x1="0"
       y1="0"
       x2="1"
       y2="0"
       gradientUnits="userSpaceOnUse"
       gradientTransform="matrix(15542.3,11490.7,11490.7,-15542.3,25697.5,22273.9)"
       spreadMethod="pad"
       id="linearGradient114"><stop
         style="stop-opacity:1;stop-color:#febbba"
         offset="0"
         id="stop110" /><stop
         style="stop-opacity:1;stop-color:#ff928e"
         offset="1"
         id="stop112" /></linearGradient><clipPath
       clipPathUnits="userSpaceOnUse"
       id="clipPath124"><path
         d="m 16043.8,20992.4 c -1104.9,0 -2249.8,28.6 -2733.4,42.3 -134.5,3.8 -243.1,110.6 -249.4,245.1 l -187.7,4041.9 c -7.3,156.2 117.6,285.9 272.7,285.9 3.2,0 6.5,-0.1 9.7,-0.2 l 4424.6,-154.7 c 151.4,-5.3 279.5,-114.5 307.4,-263.5 172.7,-922.3 117.8,-3128.5 92.6,-3886.5 -4.9,-149.1 -122.7,-269.6 -271.7,-277.4 -466.2,-24.3 -1059.5,-32.9 -1664.8,-32.9"
         id="path122" /></clipPath><linearGradient
       x1="0"
       y1="0"
       x2="1"
       y2="0"
       gradientUnits="userSpaceOnUse"
       gradientTransform="matrix(15542.3,11490.7,11490.7,-15542.3,25697.5,22273.9)"
       spreadMethod="pad"
       id="linearGradient130"><stop
         style="stop-opacity:1;stop-color:#fff0f0"
         offset="0"
         id="stop126" /><stop
         style="stop-opacity:1;stop-color:#ffe7e6"
         offset="1"
         id="stop128" /></linearGradient><clipPath
       clipPathUnits="userSpaceOnUse"
       id="clipPath140"><path
         d="m 23950,24969.8 h -4746.2 c -82.7,0 -172.9,63.9 -200.4,141.9 l -28,79.5 c -27.2,77.1 16.7,139.2 97.6,139.2 0.9,0 1.9,0 2.8,0 l 4866.3,-86.7 c 82.7,-1.5 152.2,-63.7 154.3,-138.3 2.2,-74.6 -63.7,-135.6 -146.4,-135.6"
         id="path138" /></clipPath><linearGradient
       x1="0"
       y1="0"
       x2="1"
       y2="0"
       gradientUnits="userSpaceOnUse"
       gradientTransform="matrix(15542.3,11490.7,11490.7,-15542.3,25697.5,22273.9)"
       spreadMethod="pad"
       id="linearGradient146"><stop
         style="stop-opacity:1;stop-color:#ffe4e3"
         offset="0"
         id="stop142" /><stop
         style="stop-opacity:1;stop-color:#ffd3d2"
         offset="1"
         id="stop144" /></linearGradient><clipPath
       clipPathUnits="userSpaceOnUse"
       id="clipPath156"><path
         d="m 23950,24216.3 h -4746.2 c -82.7,0 -172.9,63.9 -200.4,141.9 l -28,79.5 c -27.1,77.1 16.7,139.2 97.6,139.2 0.9,0 1.9,0 2.8,0 l 4866.3,-86.7 c 82.7,-1.5 152.2,-63.7 154.3,-138.3 2.2,-74.6 -63.7,-135.6 -146.4,-135.6"
         id="path154" /></clipPath><linearGradient
       x1="0"
       y1="0"
       x2="1"
       y2="0"
       gradientUnits="userSpaceOnUse"
       gradientTransform="matrix(15542.3,11490.7,11490.7,-15542.3,25697.5,22273.9)"
       spreadMethod="pad"
       id="linearGradient162"><stop
         style="stop-opacity:1;stop-color:#ffe4e3"
         offset="0"
         id="stop158" /><stop
         style="stop-opacity:1;stop-color:#ffd3d2"
         offset="1"
         id="stop160" /></linearGradient><clipPath
       clipPathUnits="userSpaceOnUse"
       id="clipPath172"><path
         d="m 23950,23451.9 h -4746.2 c -82.7,0 -172.9,63.8 -200.4,141.8 l -28,79.6 c -27.1,77.1 16.7,139.2 97.6,139.2 0.9,0 1.9,0 2.8,-0.1 l 4866.3,-86.7 c 82.7,-1.4 152.2,-63.7 154.3,-138.2 2.2,-74.6 -63.7,-135.6 -146.4,-135.6"
         id="path170" /></clipPath><linearGradient
       x1="0"
       y1="0"
       x2="1"
       y2="0"
       gradientUnits="userSpaceOnUse"
       gradientTransform="matrix(15542.3,11490.7,11490.7,-15542.3,25697.5,22273.9)"
       spreadMethod="pad"
       id="linearGradient178"><stop
         style="stop-opacity:1;stop-color:#ffe4e3"
         offset="0"
         id="stop174" /><stop
         style="stop-opacity:1;stop-color:#ffd3d2"
         offset="1"
         id="stop176" /></linearGradient><clipPath
       clipPathUnits="userSpaceOnUse"
       id="clipPath188"><path
         d="M 24421.2,19765.3 H 13311.6 c -82.7,0 -192.5,52.9 -244.1,117.6 l -101.8,128 c -51.2,64.3 -26.4,116.4 55.1,116.4 0.6,0 1.1,0 1.6,0 l 11380.9,-89.7 c 82.8,-0.6 154.5,-62.2 159.4,-136.8 4.9,-74.5 -58.7,-135.5 -141.5,-135.5"
         id="path186" /></clipPath><linearGradient
       x1="0"
       y1="0"
       x2="1"
       y2="0"
       gradientUnits="userSpaceOnUse"
       gradientTransform="matrix(15542.3,11490.7,11490.7,-15542.3,25697.5,22273.9)"
       spreadMethod="pad"
       id="linearGradient194"><stop
         style="stop-opacity:1;stop-color:#ffe4e3"
         offset="0"
         id="stop190" /><stop
         style="stop-opacity:1;stop-color:#ffd3d2"
         offset="1"
         id="stop192" /></linearGradient><clipPath
       clipPathUnits="userSpaceOnUse"
       id="clipPath204"><path
         d="M 24421.2,19011.8 H 13311.6 c -82.7,0 -192.5,52.9 -244.1,117.6 l -101.8,127.9 c -51.3,64.4 -26.4,116.5 55.2,116.5 0.5,0 1,0 1.5,0 l 11380.9,-89.7 c 82.8,-0.6 154.5,-62.2 159.4,-136.7 4.9,-74.6 -58.7,-135.6 -141.5,-135.6"
         id="path202" /></clipPath><linearGradient
       x1="0"
       y1="0"
       x2="1"
       y2="0"
       gradientUnits="userSpaceOnUse"
       gradientTransform="matrix(15542.3,11490.7,11490.7,-15542.3,25697.5,22273.9)"
       spreadMethod="pad"
       id="linearGradient210"><stop
         style="stop-opacity:1;stop-color:#ffe4e3"
         offset="0"
         id="stop206" /><stop
         style="stop-opacity:1;stop-color:#ffd3d2"
         offset="1"
         id="stop208" /></linearGradient><clipPath
       clipPathUnits="userSpaceOnUse"
       id="clipPath220"><path
         d="m 12978.3,18115.7 c 273.3,20.9 785.1,30.6 1066.8,34.6 119.4,1.7 224.1,-79.2 252.1,-195.3 54.3,-225.4 129.3,-616.8 119.9,-1031.5 -2.8,-124.2 -104.6,-223.3 -228.8,-221.9 l -1039.6,11.1 c -127.9,1.4 -234,99.2 -245.9,226.5 l -91.4,978 c -9.5,101.1 65.6,190.7 166.9,198.5 z"
         id="path218" /></clipPath><linearGradient
       x1="0"
       y1="0"
       x2="1"
       y2="0"
       gradientUnits="userSpaceOnUse"
       gradientTransform="matrix(12950.3,-10351.9,-10351.9,-12950.3,11368.7,19216.1)"
       spreadMethod="pad"
       id="linearGradient226"><stop
         style="stop-opacity:1;stop-color:#a737d5"
         offset="0"
         id="stop222" /><stop
         style="stop-opacity:1;stop-color:#ef497a"
         offset="1"
         id="stop224" /></linearGradient><clipPath
       clipPathUnits="userSpaceOnUse"
       id="clipPath236"><path
         d="m 17505.1,17241.3 h -2539.3 c -82.8,0 -160.5,66.9 -172.8,148.7 l -27.3,181.9 c -12,79.7 42.3,142.6 121.6,142.6 2.1,0 4.2,0 6.3,-0.1 l 2607.2,-109 c 82.6,-3.4 151.1,-73.9 152.1,-156.6 l 0.7,-57.1 c 1,-82.7 -65.8,-150.4 -148.5,-150.4"
         id="path234" /></clipPath><linearGradient
       x1="0"
       y1="0"
       x2="1"
       y2="0"
       gradientUnits="userSpaceOnUse"
       gradientTransform="matrix(15542.3,11490.7,11490.7,-15542.3,25697.5,22273.9)"
       spreadMethod="pad"
       id="linearGradient242"><stop
         style="stop-opacity:1;stop-color:#ffe4e3"
         offset="0"
         id="stop238" /><stop
         style="stop-opacity:1;stop-color:#ffd3d2"
         offset="1"
         id="stop240" /></linearGradient><clipPath
       clipPathUnits="userSpaceOnUse"
       id="clipPath252"><path
         d="m 18642,18115.7 c 273.3,20.9 785.1,30.6 1066.8,34.6 119.4,1.7 224.1,-79.2 252.1,-195.3 54.4,-225.4 129.4,-616.8 119.9,-1031.5 -2.8,-124.2 -104.5,-223.3 -228.8,-221.9 l -1039.6,11.1 c -127.8,1.4 -234,99.2 -245.9,226.5 l -91.4,978 c -9.4,101.1 65.6,190.7 166.9,198.5 z"
         id="path250" /></clipPath><linearGradient
       x1="0"
       y1="0"
       x2="1"
       y2="0"
       gradientUnits="userSpaceOnUse"
       gradientTransform="matrix(15210.2,10760.1,10760.1,-15210.2,19892.3,17854.6)"
       spreadMethod="pad"
       id="linearGradient258"><stop
         style="stop-opacity:1;stop-color:#ff928e"
         offset="0"
         id="stop254" /><stop
         style="stop-opacity:1;stop-color:#fe7062"
         offset="1"
         id="stop256" /></linearGradient><clipPath
       clipPathUnits="userSpaceOnUse"
       id="clipPath268"><path
         d="m 23168.8,17241.3 h -2539.3 c -82.7,0 -160.5,66.9 -172.8,148.7 l -27.3,181.9 c -12,79.7 42.4,142.6 121.6,142.6 2.1,0 4.2,0 6.4,-0.1 l 2607.1,-109 c 82.6,-3.4 151.1,-73.9 152.1,-156.6 l 0.7,-57.1 c 1.1,-82.7 -65.8,-150.4 -148.5,-150.4"
         id="path266" /></clipPath><linearGradient
       x1="0"
       y1="0"
       x2="1"
       y2="0"
       gradientUnits="userSpaceOnUse"
       gradientTransform="matrix(15542.3,11490.7,11490.7,-15542.3,25697.5,22273.9)"
       spreadMethod="pad"
       id="linearGradient274"><stop
         style="stop-opacity:1;stop-color:#ffe4e3"
         offset="0"
         id="stop270" /><stop
         style="stop-opacity:1;stop-color:#ffd3d2"
         offset="1"
         id="stop272" /></linearGradient><clipPath
       clipPathUnits="userSpaceOnUse"
       id="clipPath284"><path
         d="m 12955.1,14592.4 c -138.6,0 -260,72.8 -295.4,177.4 -51.2,151.1 95.1,299 295.4,299 0.5,0 1,0 1.5,0 l 11388.1,-40.5 c 125.2,-0.5 227.2,-78.6 230,-176.2 2.8,-100.4 -100.3,-183.2 -229.1,-184.1 l -11387.8,-75.6 c -0.9,0 -1.8,0 -2.7,0"
         id="path282" /></clipPath><linearGradient
       x1="0"
       y1="0"
       x2="1"
       y2="0"
       gradientUnits="userSpaceOnUse"
       gradientTransform="matrix(15542.3,11490.7,11490.7,-15542.3,25697.5,22273.9)"
       spreadMethod="pad"
       id="linearGradient290"><stop
         style="stop-opacity:1;stop-color:#ffe4e3"
         offset="0"
         id="stop286" /><stop
         style="stop-opacity:1;stop-color:#ffd3d2"
         offset="1"
         id="stop288" /></linearGradient><clipPath
       clipPathUnits="userSpaceOnUse"
       id="clipPath300"><path
         d="m 12955.2,12536.3 c -138.7,0 -260.1,72.8 -295.5,177.4 -51.2,151.2 95.1,299 295.4,299 0.5,0 1,0 1.5,0 l 11388.1,-40.5 c 125.2,-0.4 227.2,-78.6 230,-176.2 2.8,-100.4 -100.3,-183.2 -229.1,-184 l -11387.8,-75.7 c -0.9,0 -1.8,0 -2.6,0"
         id="path298" /></clipPath><linearGradient
       x1="0"
       y1="0"
       x2="1"
       y2="0"
       gradientUnits="userSpaceOnUse"
       gradientTransform="matrix(15542.3,11490.7,11490.7,-15542.3,25697.5,22273.9)"
       spreadMethod="pad"
       id="linearGradient306"><stop
         style="stop-opacity:1;stop-color:#ffe4e3"
         offset="0"
         id="stop302" /><stop
         style="stop-opacity:1;stop-color:#ffd3d2"
         offset="1"
         id="stop304" /></linearGradient><clipPath
       clipPathUnits="userSpaceOnUse"
       id="clipPath316"><path
         d="m 12955.1,10480.2 c -138.6,0 -260,72.8 -295.4,177.5 -51.2,151.1 95.1,298.9 295.4,298.9 0.5,0 1,0 1.5,0 l 11388.1,-40.5 c 125.2,-0.4 227.2,-78.5 230,-176.1 2.8,-100.4 -100.3,-183.2 -229.1,-184.1 l -11387.8,-75.7 c -0.9,0 -1.8,0 -2.7,0"
         id="path314" /></clipPath><linearGradient
       x1="0"
       y1="0"
       x2="1"
       y2="0"
       gradientUnits="userSpaceOnUse"
       gradientTransform="matrix(15542.3,11490.7,11490.7,-15542.3,25697.5,22273.9)"
       spreadMethod="pad"
       id="linearGradient322"><stop
         style="stop-opacity:1;stop-color:#ffe4e3"
         offset="0"
         id="stop318" /><stop
         style="stop-opacity:1;stop-color:#ffd3d2"
         offset="1"
         id="stop320" /></linearGradient><clipPath
       clipPathUnits="userSpaceOnUse"
       id="clipPath332"><path
         d="m 12955.1,8424.2 c -138.6,0 -260,72.8 -295.4,177.4 -51.2,151.2 95.1,299 295.4,299 0.5,0 1,0 1.5,0 l 11388.1,-40.5 c 125.2,-0.5 227.2,-78.6 230,-176.2 2.8,-100.4 -100.3,-183.2 -229.1,-184.1 l -11387.8,-75.6 c -0.9,0 -1.8,0 -2.7,0"
         id="path330" /></clipPath><linearGradient
       x1="0"
       y1="0"
       x2="1"
       y2="0"
       gradientUnits="userSpaceOnUse"
       gradientTransform="matrix(15542.3,11490.7,11490.7,-15542.3,25697.5,22273.9)"
       spreadMethod="pad"
       id="linearGradient338"><stop
         style="stop-opacity:1;stop-color:#ffe4e3"
         offset="0"
         id="stop334" /><stop
         style="stop-opacity:1;stop-color:#ffd3d2"
         offset="1"
         id="stop336" /></linearGradient><clipPath
       clipPathUnits="userSpaceOnUse"
       id="clipPath348"><path
         d="m 18389.5,29096.1 c -210.2,0 -380.6,170.4 -380.6,380.6 0,210.2 170.4,380.6 380.6,380.6 210.2,0 380.6,-170.4 380.6,-380.6 0,-210.2 -170.4,-380.6 -380.6,-380.6 z m 671.3,1129.5 c -486,338 -908.5,331.3 -1205.9,243.6 -271.4,-80.1 -447.2,-342 -421.4,-623.8 l 128.3,-1400 1526.3,-135.5 c 0,0 925.6,1252.7 -27.3,1915.7 z"
         id="path346" /></clipPath><linearGradient
       x1="0"
       y1="0"
       x2="1"
       y2="0"
       gradientUnits="userSpaceOnUse"
       gradientTransform="matrix(-6187.72,-8139.8,-8139.8,6187.72,20561.6,32233.6)"
       spreadMethod="pad"
       id="linearGradient354"><stop
         style="stop-opacity:1;stop-color:#09005d"
         offset="0"
         id="stop350" /><stop
         style="stop-opacity:1;stop-color:#1a0f91"
         offset="1"
         id="stop352" /></linearGradient><clipPath
       clipPathUnits="userSpaceOnUse"
       id="clipPath366"><path
         d="m 15478.6,27540.6 v 703.9 c 0,243 201.4,437.6 444.2,429.3 l 4853.1,-166.3 c 215.4,-7.4 389.9,-177.4 402.8,-392.5 l 40.5,-676.4 z"
         id="path364" /></clipPath><linearGradient
       x1="0"
       y1="0"
       x2="1"
       y2="0"
       gradientUnits="userSpaceOnUse"
       gradientTransform="matrix(-6187.72,-8139.8,-8139.8,6187.72,21240.4,31717.7)"
       spreadMethod="pad"
       id="linearGradient372"><stop
         style="stop-opacity:1;stop-color:#09005d"
         offset="0"
         id="stop368" /><stop
         style="stop-opacity:1;stop-color:#1a0f91"
         offset="1"
         id="stop370" /></linearGradient><clipPath
       clipPathUnits="userSpaceOnUse"
       id="clipPath386"><path
         d="m 13501.1,27362.8 c 11.7,243.8 212.8,435.4 456.8,435.4 l 8486.6,0.2 c 305.2,0 566.1,-219.6 618.1,-520.2 l 7.2,-41.5 c 57,-329.4 -196.6,-630.6 -530.8,-630.6 h -8706.8 c -200,0 -359.4,167.2 -349.8,367 z"
         id="path384" /></clipPath><linearGradient
       x1="0"
       y1="0"
       x2="1"
       y2="0"
       gradientUnits="userSpaceOnUse"
       gradientTransform="matrix(-4272.49,-7845.16,-7845.16,4272.49,20460.6,31219.8)"
       spreadMethod="pad"
       id="linearGradient392"><stop
         style="stop-opacity:1;stop-color:#ff928e"
         offset="0"
         id="stop388" /><stop
         style="stop-opacity:1;stop-color:#fe7062"
         offset="1"
         id="stop390" /></linearGradient><clipPath
       clipPathUnits="userSpaceOnUse"
       id="clipPath402"><path
         d="M 17184.9,5293.7 H 4984.44 V 8137.1 H 17184.9 Z"
         id="path400" /></clipPath><linearGradient
       x1="0"
       y1="0"
       x2="1"
       y2="0"
       gradientUnits="userSpaceOnUse"
       gradientTransform="matrix(-1577.47,-2225.07,-2225.07,1577.47,13724.3,10438.7)"
       spreadMethod="pad"
       id="linearGradient408"><stop
         style="stop-opacity:1;stop-color:#09005d"
         offset="0"
         id="stop404" /><stop
         style="stop-opacity:1;stop-color:#1a0f91"
         offset="1"
         id="stop406" /></linearGradient><clipPath
       clipPathUnits="userSpaceOnUse"
       id="clipPath418"><path
         d="M 17348.1,5475.7 H 4807.78 c -42.71,0 -77.33,34.6 -77.33,77.3 V 6567.6 H 17399.8 V 5527.4 c 0,-28.6 -23.1,-51.7 -51.7,-51.7 z"
         id="path416" /></clipPath><linearGradient
       x1="0"
       y1="0"
       x2="1"
       y2="0"
       gradientUnits="userSpaceOnUse"
       gradientTransform="matrix(-10866.7,-14880.3,-14880.3,10866.7,18113.4,15690.6)"
       spreadMethod="pad"
       id="linearGradient424"><stop
         style="stop-opacity:1;stop-color:#4f52ff"
         offset="0"
         id="stop420" /><stop
         style="stop-opacity:1;stop-color:#4042e2"
         offset="1"
         id="stop422" /></linearGradient><clipPath
       clipPathUnits="userSpaceOnUse"
       id="clipPath434"><path
         d="M 17323.1,6715.4 H 4826.12 c -52.84,0 -95.67,42.9 -95.67,95.7 v 996.2 H 17399.8 V 6792.1 c 0,-42.3 -34.3,-76.7 -76.7,-76.7 z"
         id="path432" /></clipPath><linearGradient
       x1="0"
       y1="0"
       x2="1"
       y2="0"
       gradientUnits="userSpaceOnUse"
       gradientTransform="matrix(300.734,6248.65,6248.65,-300.734,11131.3,8673.4)"
       spreadMethod="pad"
       id="linearGradient440"><stop
         style="stop-opacity:1;stop-color:#4f52ff"
         offset="0"
         id="stop436" /><stop
         style="stop-opacity:1;stop-color:#4042e2"
         offset="1"
         id="stop438" /></linearGradient><clipPath
       clipPathUnits="userSpaceOnUse"
       id="clipPath450"><path
         d="M 17399.8,7807.3 H 4730.45 v 330.4 c 0,43.7 35.37,79 79,79 H 17319.8 c 44.2,0 80,-35.8 80,-80 z"
         id="path448" /></clipPath><linearGradient
       x1="0"
       y1="0"
       x2="1"
       y2="0"
       gradientUnits="userSpaceOnUse"
       gradientTransform="matrix(-2779.77,-2813.26,-2813.26,2779.77,20763.8,17804.3)"
       spreadMethod="pad"
       id="linearGradient456"><stop
         style="stop-opacity:1;stop-color:#09005d"
         offset="0"
         id="stop452" /><stop
         style="stop-opacity:1;stop-color:#1a0f91"
         offset="1"
         id="stop454" /></linearGradient><clipPath
       clipPathUnits="userSpaceOnUse"
       id="clipPath466"><path
         d="m 28535.1,6863.3 c 410.5,-199.6 555.3,-748 323.4,-1225 -231.9,-476.9 -752.7,-701.7 -1163.2,-502.1 -410.5,199.7 -555.3,748.1 -323.4,1225 231.9,477 752.7,701.8 1163.2,502.1 z"
         id="path464" /></clipPath><linearGradient
       x1="0"
       y1="0"
       x2="1"
       y2="0"
       gradientUnits="userSpaceOnUse"
       gradientTransform="matrix(2557.18,-630.991,-630.991,-2557.18,33729.2,4614.5)"
       spreadMethod="pad"
       id="linearGradient472"><stop
         style="stop-opacity:1;stop-color:#4f52ff"
         offset="0"
         id="stop468" /><stop
         style="stop-opacity:1;stop-color:#4042e2"
         offset="1"
         id="stop470" /></linearGradient><clipPath
       clipPathUnits="userSpaceOnUse"
       id="clipPath482"><path
         d="m 27870.7,6653.1 -420.4,-864.5 c -15.1,-31 -52.5,-44 -83.5,-28.9 l -526.2,255.9 c -31,15.1 -44,52.5 -28.9,83.6 l 420.4,864.5 c 15.1,31 52.6,44 83.6,28.9 l 526.1,-255.9 c 31.1,-15.1 44,-52.5 28.9,-83.6 z"
         id="path480" /></clipPath><linearGradient
       x1="0"
       y1="0"
       x2="1"
       y2="0"
       gradientUnits="userSpaceOnUse"
       gradientTransform="matrix(3686.83,-2308.58,-2308.58,-3686.83,21882.8,9794)"
       spreadMethod="pad"
       id="linearGradient488"><stop
         style="stop-opacity:1;stop-color:#4f52ff"
         offset="0"
         id="stop484" /><stop
         style="stop-opacity:1;stop-color:#4042e2"
         offset="1"
         id="stop486" /></linearGradient><clipPath
       clipPathUnits="userSpaceOnUse"
       id="clipPath498"><path
         d="m 27331.8,7070.3 c -75.4,-387.1 -247.3,-732.9 -508.6,-1040.3 -141.1,-166.1 -367.6,-240.5 -592.9,-195.2 -2153.7,432.4 -6667.4,3222.1 -11050.8,5659.2 -290.5,161.5 -491.3,344.7 -354.4,626.2 l 302.3,621.7 c 136,279.8 461.6,122.3 767.2,-3.2 4636.7,-1905 9554.5,-3565.6 11242.8,-5102 162,-147.4 234.2,-362.2 194.4,-566.4 z"
         id="path496" /></clipPath><linearGradient
       x1="0"
       y1="0"
       x2="1"
       y2="0"
       gradientUnits="userSpaceOnUse"
       gradientTransform="matrix(-18393,7913.33,7913.33,18393,32601.4,4352.1)"
       spreadMethod="pad"
       id="linearGradient504"><stop
         style="stop-opacity:1;stop-color:#4f52ff"
         offset="0"
         id="stop500" /><stop
         style="stop-opacity:1;stop-color:#4042e2"
         offset="1"
         id="stop502" /></linearGradient><clipPath
       clipPathUnits="userSpaceOnUse"
       id="clipPath514"><path
         d="m 15830.5,13377.3 -1026.4,-2110.6 c -14.5,-29.7 -50.4,-42.2 -80.2,-27.7 l -541.3,263.3 c -29.8,14.5 -42.3,50.4 -27.8,80.2 l 1026.4,2110.5 c 14.4,29.8 50.3,42.2 80.1,27.8 l 541.4,-263.3 c 29.8,-14.5 42.2,-50.4 27.8,-80.2 z"
         id="path512" /></clipPath><linearGradient
       x1="0"
       y1="0"
       x2="1"
       y2="0"
       gradientUnits="userSpaceOnUse"
       gradientTransform="matrix(2798.09,-2003.57,-2003.57,-2798.09,12389.2,14344.1)"
       spreadMethod="pad"
       id="linearGradient520"><stop
         style="stop-opacity:1;stop-color:#09005d"
         offset="0"
         id="stop516" /><stop
         style="stop-opacity:1;stop-color:#1a0f91"
         offset="1"
         id="stop518" /></linearGradient><clipPath
       clipPathUnits="userSpaceOnUse"
       id="clipPath530"><path
         d="m 11268.5,15484.2 -1026.3,-2110.6 c -14.5,-29.8 -50.4,-42.2 -80.2,-27.7 l -541.38,263.3 c -29.8,14.5 -42.21,50.4 -27.72,80.2 l 1026.3,2110.5 c 14.5,29.8 50.4,42.2 80.2,27.7 l 541.4,-263.2 c 29.8,-14.5 42.2,-50.4 27.7,-80.2 z"
         id="path528" /></clipPath><linearGradient
       x1="0"
       y1="0"
       x2="1"
       y2="0"
       gradientUnits="userSpaceOnUse"
       gradientTransform="matrix(-9026.34,3708.77,3708.77,9026.34,19694.9,10780.3)"
       spreadMethod="pad"
       id="linearGradient536"><stop
         style="stop-opacity:1;stop-color:#4f52ff"
         offset="0"
         id="stop532" /><stop
         style="stop-opacity:1;stop-color:#4042e2"
         offset="1"
         id="stop534" /></linearGradient><clipPath
       clipPathUnits="userSpaceOnUse"
       id="clipPath546"><path
         d="m 16280.8,15438.4 -3243,-6668.9 -4518.05,2197.1 3242.95,6668.9 z"
         id="path544" /></clipPath><linearGradient
       x1="0"
       y1="0"
       x2="1"
       y2="0"
       gradientUnits="userSpaceOnUse"
       gradientTransform="matrix(4234.29,-2092.24,-2092.24,-4234.29,10151.4,14313.7)"
       spreadMethod="pad"
       id="linearGradient552"><stop
         style="stop-opacity:1;stop-color:#4f52ff"
         offset="0"
         id="stop548" /><stop
         style="stop-opacity:1;stop-color:#4042e2"
         offset="1"
         id="stop550" /></linearGradient><clipPath
       clipPathUnits="userSpaceOnUse"
       id="clipPath562"><path
         d="m 13208.9,9121.2 -407.9,-838.7 -4518.06,2197.1 407.84,838.7 z"
         id="path560" /></clipPath><linearGradient
       x1="0"
       y1="0"
       x2="1"
       y2="0"
       gradientUnits="userSpaceOnUse"
       gradientTransform="matrix(2490.76,1793.34,1793.34,-2490.76,7300.43,7319.7)"
       spreadMethod="pad"
       id="linearGradient568"><stop
         style="stop-opacity:1;stop-color:#09005d"
         offset="0"
         id="stop564" /><stop
         style="stop-opacity:1;stop-color:#1a0f91"
         offset="1"
         id="stop566" /></linearGradient><clipPath
       clipPathUnits="userSpaceOnUse"
       id="clipPath578"><path
         d="m 12985.2,8661.3 -202.7,-416.8 c -62,-127.5 -207.1,-191.4 -343,-151 -1408.4,418.2 -2771.46,1070 -4082.95,1987.8 -114.84,80.4 -154.26,232.4 -92.97,358.5 l 203.54,418.6 z"
         id="path576" /></clipPath><linearGradient
       x1="0"
       y1="0"
       x2="1"
       y2="0"
       gradientUnits="userSpaceOnUse"
       gradientTransform="matrix(1461.25,3952,3952,-1461.25,8734.94,4442.4)"
       spreadMethod="pad"
       id="linearGradient584"><stop
         style="stop-opacity:1;stop-color:#4f52ff"
         offset="0"
         id="stop580" /><stop
         style="stop-opacity:1;stop-color:#4042e2"
         offset="1"
         id="stop582" /></linearGradient><clipPath
       clipPathUnits="userSpaceOnUse"
       id="clipPath594"><path
         d="m 13441.4,9289.9 -169,-347.5 c -15.1,-31.1 -52.5,-44 -83.5,-28.9 l -4730.34,2300.3 c -31.04,15.1 -43.97,52.5 -28.87,83.5 l 168.99,347.5 c 15.09,31.1 52.49,44 83.54,28.9 L 13412.5,9373.4 c 31.1,-15.1 44,-52.5 28.9,-83.5 z"
         id="path592" /></clipPath><linearGradient
       x1="0"
       y1="0"
       x2="1"
       y2="0"
       gradientUnits="userSpaceOnUse"
       gradientTransform="matrix(1503.56,-3827.24,-3827.24,-1503.56,7628.03,18712.7)"
       spreadMethod="pad"
       id="linearGradient600"><stop
         style="stop-opacity:1;stop-color:#09005d"
         offset="0"
         id="stop596" /><stop
         style="stop-opacity:1;stop-color:#1a0f91"
         offset="1"
         id="stop598" /></linearGradient><clipPath
       clipPathUnits="userSpaceOnUse"
       id="clipPath610"><path
         d="m 13414.4,9234.3 -115,-236.3 c -13.6,-28.2 -47.5,-39.9 -75.6,-26.2 l -4740.93,2305.4 c -28.12,13.7 -39.83,47.6 -26.16,75.7 l 114.94,236.3 c 13.67,28.2 47.55,39.9 75.67,26.2 L 13388.2,9310 c 28.1,-13.7 39.9,-47.6 26.2,-75.7 z"
         id="path608" /></clipPath><linearGradient
       x1="0"
       y1="0"
       x2="1"
       y2="0"
       gradientUnits="userSpaceOnUse"
       gradientTransform="matrix(2188.83,6224.49,6224.49,-2188.83,8597.35,3644.3)"
       spreadMethod="pad"
       id="linearGradient616"><stop
         style="stop-opacity:1;stop-color:#4f52ff"
         offset="0"
         id="stop612" /><stop
         style="stop-opacity:1;stop-color:#4042e2"
         offset="1"
         id="stop614" /></linearGradient><clipPath
       clipPathUnits="userSpaceOnUse"
       id="clipPath626"><path
         d="m 16307.1,15492.5 407.8,838.7 -4518,2197.1 -407.9,-838.7 z"
         id="path624" /></clipPath><linearGradient
       x1="0"
       y1="0"
       x2="1"
       y2="0"
       gradientUnits="userSpaceOnUse"
       gradientTransform="matrix(-4524.23,-830.317,830.317,-4524.23,120799,36564.6)"
       spreadMethod="pad"
       id="linearGradient632"><stop
         style="stop-opacity:1;stop-color:#09005d"
         offset="0"
         id="stop628" /><stop
         style="stop-opacity:1;stop-color:#1a0f91"
         offset="1"
         id="stop630" /></linearGradient><clipPath
       clipPathUnits="userSpaceOnUse"
       id="clipPath642"><path
         d="m 16530.7,15952.5 202.7,416.8 c 62,127.4 22.7,281.1 -93,363 -1198.7,849.5 -2553,1519.2 -4084.8,1984 -134.1,40.7 -278.1,-22.2 -339.4,-148.2 l -203.5,-418.6 z"
         id="path640" /></clipPath><linearGradient
       x1="0"
       y1="0"
       x2="1"
       y2="0"
       gradientUnits="userSpaceOnUse"
       gradientTransform="matrix(-2025.82,-3287.8,-3287.8,2025.82,18294.1,23624.5)"
       spreadMethod="pad"
       id="linearGradient648"><stop
         style="stop-opacity:1;stop-color:#4f52ff"
         offset="0"
         id="stop644" /><stop
         style="stop-opacity:1;stop-color:#4042e2"
         offset="1"
         id="stop646" /></linearGradient><clipPath
       clipPathUnits="userSpaceOnUse"
       id="clipPath658"><path
         d="m 16318,15205.5 169,347.5 c 15.1,31 2.2,68.4 -28.9,83.5 l -4730.3,2300.3 c -31,15.1 -68.4,2.1 -83.5,-28.9 l -169,-347.5 c -15.1,-31.1 -2.2,-68.5 28.9,-83.6 l 4730.3,-2300.2 c 31,-15.1 68.4,-2.2 83.5,28.9 z"
         id="path656" /></clipPath><linearGradient
       x1="0"
       y1="0"
       x2="1"
       y2="0"
       gradientUnits="userSpaceOnUse"
       gradientTransform="matrix(498.194,-3779.42,-3779.42,-498.194,13181.1,22626.4)"
       spreadMethod="pad"
       id="linearGradient664"><stop
         style="stop-opacity:1;stop-color:#09005d"
         offset="0"
         id="stop660" /><stop
         style="stop-opacity:1;stop-color:#1a0f91"
         offset="1"
         id="stop662" /></linearGradient><clipPath
       clipPathUnits="userSpaceOnUse"
       id="clipPath674"><path
         d="m 16345.1,15261 114.9,236.4 c 13.7,28.1 2,62 -26.2,75.7 l -4740.9,2305.4 c -28.1,13.6 -62,1.9 -75.6,-26.2 l -115,-236.3 c -13.6,-28.1 -1.9,-62 26.2,-75.7 l 4740.9,-2305.4 c 28.1,-13.7 62,-2 75.7,26.1 z"
         id="path672" /></clipPath><linearGradient
       x1="0"
       y1="0"
       x2="1"
       y2="0"
       gradientUnits="userSpaceOnUse"
       gradientTransform="matrix(-3052.86,-4322.04,-4322.04,3052.86,18668.6,23192.8)"
       spreadMethod="pad"
       id="linearGradient680"><stop
         style="stop-opacity:1;stop-color:#4f52ff"
         offset="0"
         id="stop676" /><stop
         style="stop-opacity:1;stop-color:#4042e2"
         offset="1"
         id="stop678" /></linearGradient></defs><sodipodi:namedview
     id="namedview4"
     pagecolor="#ffffff"
     bordercolor="#666666"
     borderopacity="1.0"
     inkscape:pageshadow="2"
     inkscape:pageopacity="0.0"
     inkscape:pagecheckerboard="0" /><g
     id="g8"
     inkscape:groupmode="layer"
     inkscape:label="ink_ext_XXXXXX"
     transform="matrix(1.3333333,0,0,-1.3333333,0,4946.6667)"><g
       id="g10"
       transform="scale(0.1)"><path
         d="M 0,0 H 37100 V 37100 H 0 Z"
         style="fill:#ffffff;fill-opacity:1;fill-rule:nonzero;stroke:none"
         id="path12" /><g
         id="g14"><g
           id="g16"
           clip-path="url(#clipPath20)"><path
             d="m 18717,5034.1 c -1660.9,0 -2929.6,232.2 -3435.7,335 -126.5,25.7 -261.2,53.1 -403.2,82.7 l 8157,148.3 c -1556.8,-430.8 -3051.6,-566 -4318.1,-566 M 9918.21,7279.7 C 9015.84,7831.2 8127.92,8544.7 7333.95,9478.4 3453.72,14041.5 4057.94,21230.5 7067.7,25976 c 550.53,868.1 3458.6,5685.9 9369.3,6458.5 586.6,76.7 1189.8,115.5 1800.6,115.5 2427.7,0 4985.1,-611.3 7190.8,-1883.1 -1090.7,-698.7 -2024.9,-1637 -2408.1,-2884.5 -21.8,-71 -42.3,-143 -61.7,-216.1 H 12790 c -521.1,61.8 -945.8,117.1 -1248.5,158.1 -21.1,2.9 -42,4.3 -62.7,4.3 -162,0 -307,-85.6 -388.7,-216 -674.9,-180.7 -1171.89,-796.4 -1171.89,-1528.3 V 7279.7 m 17374.89,334.4 -531.4,10437.1 c 166,45.9 344.1,84.6 536.3,123.4 1164.1,235.5 2464.5,1105.5 2846.4,2473.2 197.6,707.8 777.6,1411.8 1291.4,1926.4 1356.1,-5042.3 202.5,-10711.9 -2607.1,-13669.7 -562.3,-592 -1094.5,-973.9 -1514.9,-1275.5 -6.9,-5 -13.8,-9.9 -20.7,-14.9 m 3836.4,15963.2 c -480.1,70.2 -1056.6,140 -1640.8,176.9 326.3,490.4 596.3,1091.3 773.9,1842.9 341,-650.3 629.2,-1326.9 866.9,-2019.8"
             style="fill:url(#linearGradient26);fill-opacity:1;fill-rule:nonzero;stroke:none"
             id="path28" /></g></g><path
         d="m 24381,16888.3 c 0,0 -80.5,3382.6 1477.5,4287.9 1557.9,905.3 4520.1,1471.3 4631.2,6328.3 65,2843.4 135.3,4086.7 182.5,4628.8 18.4,211.4 -169.5,382.1 -378.1,342.8 -1475.5,-277.9 -6268.8,-1422 -7273.8,-4693.7 C 21828.9,23903.9 24381,16888.3 24381,16888.3"
         style="fill:#91b3fa;fill-opacity:1;fill-rule:nonzero;stroke:none"
         id="path30" /><path
         d="m 29153,31124.8 c -1619.7,-1444.5 -3492.5,-4001 -4490.8,-6557.5 -128.1,-421.4 -502.9,-1317.4 -665.7,-2909.3 -145.4,-1327.7 -73.1,-2730.7 103.2,-3659.4 11.1,-58.7 67.7,-97.3 126.4,-86.2 101,19.2 87.6,127.8 86.7,124.4 -201.3,1586.7 -117.8,3561.6 343.5,5343.6 589.4,2188.1 1903.8,4309.5 3263.4,6108.7 l 140,177.2 c 1053.3,1352.7 1275.1,1362.7 1176.6,1457 -23.3,22.3 -59.7,22.5 -83.3,1.5"
         style="fill:#bdd0fb;fill-opacity:1;fill-rule:nonzero;stroke:none"
         id="path32" /><path
         d="m 22434,10684 c -210.8,-103.4 1995.5,2671.1 2686.6,7028.5 325.7,2053.3 330,4626 1499.6,5617.4 973.5,825.1 4286.1,304.2 5370,106.2 135.4,-24.7 181.1,-195.8 75.6,-284.3 -519.8,-436.6 -1631.7,-1466.2 -1921.4,-2504 -381.9,-1367.7 -1682.3,-2237.7 -2846.4,-2473.2 -1164.2,-235.4 -1811.8,-463.9 -2378.9,-2325.7 C 24351.9,13987.2 23032.9,10977.7 22434,10684"
         style="fill:#bdd0fb;fill-opacity:1;fill-rule:nonzero;stroke:none"
         id="path34" /><g
         id="g36"><g
           id="g38"
           clip-path="url(#clipPath42)"><path
             d="m 30465.8,22858.2 c -1382.9,-57.9 -2867.3,-688.7 -3620.6,-1872 l -71.1,-112.9 c -164.2,-264.8 -1094.9,-2146.9 -1611.7,-3707.1 -6.5,-19.4 4.1,-40.4 23.5,-46.9 33,-10.9 49.6,25.4 46.4,22.2 360.2,881.4 877.4,1998.9 1289.3,2834.5 441.8,911.9 751,1529.4 1758.6,2120.9 1121.6,637 2193.1,702.6 2189.8,702 16.4,1.6 28.3,16.2 26.6,32.6 -1.6,15.7 -15.2,27.3 -30.8,26.7"
             style="fill:url(#linearGradient48);fill-opacity:1;fill-rule:nonzero;stroke:none"
             id="path50" /></g></g><g
         id="g52"><g
           id="g54"
           clip-path="url(#clipPath58)"><path
             d="m 10893.4,5379.6 c -537.4,0 -975.19,435.8 -975.19,975.5 v 924.6 18704.7 c 0,731.9 496.99,1347.6 1171.89,1528.3 -44.6,-71.1 -70.3,-155.5 -69.8,-246.6 l 121.1,-20577.2 c 1.1,-197.4 150.2,-362.8 346.6,-383.3 787.6,-82.5 1921.1,-114.9 3217.9,-114.9 4016.2,0 9591.7,311.1 11252.3,409.4 268.5,15.9 473.6,245.6 459.3,514.2 L 25376.3,26705 c -12,227.4 -200.4,402 -424.3,402 -11,0 -22.1,-0.4 -33.2,-1.2 -1045,-80.3 -2133.3,-113.6 -3221.3,-113.6 -3453.6,0 -6899,336 -8907.5,574.1 h 10168.6 1994.1 c 389.3,0 742.8,-160 996.3,-419.1 82,-83.8 153.6,-178 212.5,-280.5 106.3,-184.7 171.5,-396.5 183.1,-623.2 l 154.1,-3026.4 263,-5165.9 531.4,-10437.1 44.5,-874.3 c 29.5,-580.1 -427.1,-1069.3 -1007.8,-1079.9 l -3294.7,-59.8 -8157,-148.3 -3966.6,-72.1 c -6,-0.1 -12.1,-0.1 -18.1,-0.1"
             style="fill:url(#linearGradient64);fill-opacity:1;fill-rule:nonzero;stroke:none"
             id="path66" /></g></g><path
         d="m 13164.9,5711.3 h -0.5 l -1725.2,22.3 c -576.9,7.5 -1046.2,482.9 -1046.2,1059.8 v 2604.8 c 0,20.3 16.5,36.8 36.8,36.8 20.4,0 36.9,-16.5 36.9,-36.8 V 6793.4 c 0,-536.8 436.7,-979.2 973.5,-986.2 l 1725.2,-22.3 c 20.3,-0.2 36.6,-16.9 36.3,-37.3 -0.2,-20.1 -16.7,-36.3 -36.8,-36.3"
         style="fill:#91b3fa;fill-opacity:1;fill-rule:nonzero;stroke:none"
         id="path68" /><g
         id="g70"><g
           id="g72"
           clip-path="url(#clipPath76)"><path
             d="m 10429.8,10168.2 c -20.3,0 -36.8,16.4 -36.8,36.8 v 421.8 c 0,20.4 16.5,36.9 36.8,36.9 20.4,0 36.9,-16.5 36.9,-36.9 V 10205 c 0,-20.4 -16.5,-36.8 -36.9,-36.8"
             style="fill:url(#linearGradient82);fill-opacity:1;fill-rule:nonzero;stroke:none"
             id="path84" /></g></g><g
         id="g86"><g
           id="g88"
           clip-path="url(#clipPath92)"><path
             d="m 14705.9,6190.7 c -1296.8,0 -2430.3,32.4 -3217.9,114.9 -196.4,20.5 -345.5,185.9 -346.6,383.3 l -121.1,20577.2 c -0.5,91.1 25.2,175.5 69.8,246.6 81.7,130.4 226.7,216 388.7,216 20.7,0 41.6,-1.4 62.7,-4.3 302.7,-41 727.4,-96.3 1248.5,-158.1 2008.5,-238.1 5453.9,-574.1 8907.5,-574.1 1088,0 2176.3,33.3 3221.3,113.6 11.1,0.8 22.2,1.2 33.2,1.2 223.9,0 412.3,-174.6 424.3,-402 L 26417.5,7114.3 c 14.3,-268.6 -190.8,-498.3 -459.3,-514.2 -1660.6,-98.3 -7236.1,-409.4 -11252.3,-409.4 M 11678,27220.3 c -241,0 -442.8,-196.6 -441.3,-445.1 l 116.5,-19802.3 c 1.1,-190.1 144.6,-349.2 333.6,-369 757.9,-79.4 1848.7,-110.6 3096.6,-110.6 3865,0 9230.7,299.5 10828.7,394.1 258.4,15.3 455.8,236.3 442.1,494.8 l -1002,18853 c -11.7,218.8 -193,386.9 -408.4,386.9 -10.6,0 -21.3,-0.4 -32,-1.2 -1005.6,-77.2 -2053,-109.3 -3100,-109.3 -4185.9,0 -8359.4,512.9 -9773.5,704.6 -20.4,2.8 -40.5,4.1 -60.3,4.1"
             style="fill:url(#linearGradient98);fill-opacity:1;fill-rule:nonzero;stroke:none"
             id="path100" /></g></g><g
         id="g102"><g
           id="g104"
           clip-path="url(#clipPath108)"><path
             d="m 14783.4,6493.3 c -1247.9,0 -2338.7,31.2 -3096.6,110.6 -189,19.8 -332.5,178.9 -333.6,369 l -116.5,19802.3 c -1.5,248.5 200.3,445.1 441.3,445.1 19.8,0 39.9,-1.3 60.3,-4.1 1414.1,-191.7 5587.6,-704.6 9773.5,-704.6 1047,0 2094.4,32.1 3100,109.3 10.7,0.8 21.4,1.2 32,1.2 215.4,0 396.7,-168.1 408.4,-386.9 l 1002,-18853 c 13.7,-258.5 -183.7,-479.5 -442.1,-494.8 -1598,-94.6 -6963.7,-394.1 -10828.7,-394.1 m -1828.3,2407.3 c -200.3,0 -346.6,-147.8 -295.4,-299 35.4,-104.6 156.8,-177.4 295.4,-177.4 0.9,0 1.8,0 2.7,0 l 11387.8,75.6 c 128.8,0.9 231.9,83.7 229.1,184.1 -2.8,97.6 -104.8,175.7 -230,176.2 l -11388.1,40.5 c -0.5,0 -1,0 -1.5,0 m 0,2056 c -200.3,0 -346.6,-147.8 -295.4,-298.9 35.4,-104.7 156.8,-177.5 295.4,-177.5 0.9,0 1.8,0 2.7,0 l 11387.8,75.7 c 128.8,0.9 231.9,83.7 229.1,184.1 -2.8,97.6 -104.8,175.7 -230,176.1 l -11388.1,40.5 c -0.5,0 -1,0 -1.5,0 m 0,2056.1 c -200.3,0 -346.6,-147.8 -295.4,-299 35.4,-104.6 156.8,-177.4 295.5,-177.4 0.8,0 1.7,0 2.6,0 l 11387.8,75.7 c 128.8,0.8 231.9,83.6 229.1,184 -2.8,97.6 -104.8,175.8 -230,176.2 l -11388.1,40.5 c -0.5,0 -1,0 -1.5,0 m 0,2056.1 c -200.3,0 -346.6,-147.9 -295.4,-299 35.4,-104.6 156.8,-177.4 295.4,-177.4 0.9,0 1.8,0 2.7,0 l 11387.8,75.6 c 128.8,0.9 231.9,83.7 229.1,184.1 -2.8,97.6 -104.8,175.7 -230,176.2 l -11388.1,40.5 c -0.5,0 -1,0 -1.5,0 m 7595.9,2645.7 c -79.2,0 -133.6,-62.9 -121.6,-142.6 l 27.3,-181.9 c 12.3,-81.8 90.1,-148.7 172.8,-148.7 h 2539.3 c 82.7,0 149.6,67.7 148.5,150.4 l -0.7,57.1 c -1,82.7 -69.5,153.2 -152.1,156.6 l -2607.1,109 c -2.2,0.1 -4.3,0.1 -6.4,0.1 m -5663.7,0 c -79.3,0 -133.6,-62.9 -121.6,-142.6 l 27.3,-181.9 c 12.3,-81.8 90,-148.7 172.8,-148.7 h 2539.3 c 82.7,0 149.5,67.7 148.5,150.4 l -0.7,57.1 c -1,82.7 -69.5,153.2 -152.1,156.6 l -2607.2,109 c -2.1,0.1 -4.2,0.1 -6.3,0.1 m -1866.4,1659.3 c -81.6,0 -106.5,-52.1 -55.2,-116.5 l 101.8,-127.9 c 51.6,-64.7 161.4,-117.6 244.1,-117.6 h 11109.6 c 82.8,0 146.4,61 141.5,135.6 -4.9,74.5 -76.6,136.1 -159.4,136.7 l -11380.9,89.7 c -0.5,0 -1,0 -1.5,0 m -0.1,753.5 c -81.5,0 -106.3,-52.1 -55.1,-116.4 l 101.8,-128 c 51.6,-64.7 161.4,-117.6 244.1,-117.6 h 11109.6 c 82.8,0 146.4,61 141.5,135.5 -4.9,74.6 -76.6,136.2 -159.4,136.8 l -11380.9,89.7 c -0.5,0 -1,0 -1.6,0 m 125.2,5480.3 c -155.1,0 -280,-129.7 -272.7,-285.9 l 187.7,-4041.9 c 6.3,-134.5 114.9,-241.3 249.4,-245.1 483.6,-13.7 1628.5,-42.3 2733.4,-42.3 605.3,0 1198.6,8.6 1664.8,32.9 149,7.8 266.8,128.3 271.7,277.4 25.2,758 80.1,2964.2 -92.6,3886.5 -27.9,149 -156,258.2 -307.4,263.5 l -4424.6,154.7 c -3.2,0.1 -6.5,0.2 -9.7,0.2 m 5927,-1795.1 c -80.9,0 -124.7,-62.1 -97.6,-139.2 l 28,-79.6 c 27.5,-78 117.7,-141.8 200.4,-141.8 H 23950 c 82.7,0 148.6,61 146.4,135.6 -2.1,74.5 -71.6,136.8 -154.3,138.2 l -4866.3,86.7 c -0.9,0.1 -1.9,0.1 -2.8,0.1 m 0,764.4 c -80.9,0 -124.7,-62.1 -97.6,-139.2 l 28,-79.5 c 27.5,-78 117.7,-141.9 200.4,-141.9 H 23950 c 82.7,0 148.6,61 146.4,135.6 -2.1,74.6 -71.6,136.8 -154.3,138.3 l -4866.3,86.7 c -0.9,0 -1.9,0 -2.8,0 m 0,753.5 c -80.9,0 -124.8,-62.1 -97.6,-139.2 l 28,-79.5 c 27.5,-78 117.7,-141.9 200.4,-141.9 H 23950 c 82.7,0 148.6,61 146.4,135.6 -2.1,74.6 -71.6,136.8 -154.3,138.3 l -4866.3,86.7 c -0.9,0 -1.9,0 -2.8,0"
             style="fill:url(#linearGradient114);fill-opacity:1;fill-rule:nonzero;stroke:none"
             id="path116" /></g></g><g
         id="g118"><g
           id="g120"
           clip-path="url(#clipPath124)"><path
             d="m 16043.8,20992.4 c -1104.9,0 -2249.8,28.6 -2733.4,42.3 -134.5,3.8 -243.1,110.6 -249.4,245.1 l -187.7,4041.9 c -7.3,156.2 117.6,285.9 272.7,285.9 3.2,0 6.5,-0.1 9.7,-0.2 l 4424.6,-154.7 c 151.4,-5.3 279.5,-114.5 307.4,-263.5 172.7,-922.3 117.8,-3128.5 92.6,-3886.5 -4.9,-149.1 -122.7,-269.6 -271.7,-277.4 -466.2,-24.3 -1059.5,-32.9 -1664.8,-32.9"
             style="fill:url(#linearGradient130);fill-opacity:1;fill-rule:nonzero;stroke:none"
             id="path132" /></g></g><g
         id="g134"><g
           id="g136"
           clip-path="url(#clipPath140)"><path
             d="m 23950,24969.8 h -4746.2 c -82.7,0 -172.9,63.9 -200.4,141.9 l -28,79.5 c -27.2,77.1 16.7,139.2 97.6,139.2 0.9,0 1.9,0 2.8,0 l 4866.3,-86.7 c 82.7,-1.5 152.2,-63.7 154.3,-138.3 2.2,-74.6 -63.7,-135.6 -146.4,-135.6"
             style="fill:url(#linearGradient146);fill-opacity:1;fill-rule:nonzero;stroke:none"
             id="path148" /></g></g><g
         id="g150"><g
           id="g152"
           clip-path="url(#clipPath156)"><path
             d="m 23950,24216.3 h -4746.2 c -82.7,0 -172.9,63.9 -200.4,141.9 l -28,79.5 c -27.1,77.1 16.7,139.2 97.6,139.2 0.9,0 1.9,0 2.8,0 l 4866.3,-86.7 c 82.7,-1.5 152.2,-63.7 154.3,-138.3 2.2,-74.6 -63.7,-135.6 -146.4,-135.6"
             style="fill:url(#linearGradient162);fill-opacity:1;fill-rule:nonzero;stroke:none"
             id="path164" /></g></g><g
         id="g166"><g
           id="g168"
           clip-path="url(#clipPath172)"><path
             d="m 23950,23451.9 h -4746.2 c -82.7,0 -172.9,63.8 -200.4,141.8 l -28,79.6 c -27.1,77.1 16.7,139.2 97.6,139.2 0.9,0 1.9,0 2.8,-0.1 l 4866.3,-86.7 c 82.7,-1.4 152.2,-63.7 154.3,-138.2 2.2,-74.6 -63.7,-135.6 -146.4,-135.6"
             style="fill:url(#linearGradient178);fill-opacity:1;fill-rule:nonzero;stroke:none"
             id="path180" /></g></g><g
         id="g182"><g
           id="g184"
           clip-path="url(#clipPath188)"><path
             d="M 24421.2,19765.3 H 13311.6 c -82.7,0 -192.5,52.9 -244.1,117.6 l -101.8,128 c -51.2,64.3 -26.4,116.4 55.1,116.4 0.6,0 1.1,0 1.6,0 l 11380.9,-89.7 c 82.8,-0.6 154.5,-62.2 159.4,-136.8 4.9,-74.5 -58.7,-135.5 -141.5,-135.5"
             style="fill:url(#linearGradient194);fill-opacity:1;fill-rule:nonzero;stroke:none"
             id="path196" /></g></g><g
         id="g198"><g
           id="g200"
           clip-path="url(#clipPath204)"><path
             d="M 24421.2,19011.8 H 13311.6 c -82.7,0 -192.5,52.9 -244.1,117.6 l -101.8,127.9 c -51.3,64.4 -26.4,116.5 55.2,116.5 0.5,0 1,0 1.5,0 l 11380.9,-89.7 c 82.8,-0.6 154.5,-62.2 159.4,-136.7 4.9,-74.6 -58.7,-135.6 -141.5,-135.6"
             style="fill:url(#linearGradient210);fill-opacity:1;fill-rule:nonzero;stroke:none"
             id="path212" /></g></g><g
         id="g214"><g
           id="g216"
           clip-path="url(#clipPath220)"><path
             d="m 12978.3,18115.7 c 273.3,20.9 785.1,30.6 1066.8,34.6 119.4,1.7 224.1,-79.2 252.1,-195.3 54.3,-225.4 129.3,-616.8 119.9,-1031.5 -2.8,-124.2 -104.6,-223.3 -228.8,-221.9 l -1039.6,11.1 c -127.9,1.4 -234,99.2 -245.9,226.5 l -91.4,978 c -9.5,101.1 65.6,190.7 166.9,198.5"
             style="fill:url(#linearGradient226);fill-opacity:1;fill-rule:nonzero;stroke:none"
             id="path228" /></g></g><g
         id="g230"><g
           id="g232"
           clip-path="url(#clipPath236)"><path
             d="m 17505.1,17241.3 h -2539.3 c -82.8,0 -160.5,66.9 -172.8,148.7 l -27.3,181.9 c -12,79.7 42.3,142.6 121.6,142.6 2.1,0 4.2,0 6.3,-0.1 l 2607.2,-109 c 82.6,-3.4 151.1,-73.9 152.1,-156.6 l 0.7,-57.1 c 1,-82.7 -65.8,-150.4 -148.5,-150.4"
             style="fill:url(#linearGradient242);fill-opacity:1;fill-rule:nonzero;stroke:none"
             id="path244" /></g></g><g
         id="g246"><g
           id="g248"
           clip-path="url(#clipPath252)"><path
             d="m 18642,18115.7 c 273.3,20.9 785.1,30.6 1066.8,34.6 119.4,1.7 224.1,-79.2 252.1,-195.3 54.4,-225.4 129.4,-616.8 119.9,-1031.5 -2.8,-124.2 -104.5,-223.3 -228.8,-221.9 l -1039.6,11.1 c -127.8,1.4 -234,99.2 -245.9,226.5 l -91.4,978 c -9.4,101.1 65.6,190.7 166.9,198.5"
             style="fill:url(#linearGradient258);fill-opacity:1;fill-rule:nonzero;stroke:none"
             id="path260" /></g></g><g
         id="g262"><g
           id="g264"
           clip-path="url(#clipPath268)"><path
             d="m 23168.8,17241.3 h -2539.3 c -82.7,0 -160.5,66.9 -172.8,148.7 l -27.3,181.9 c -12,79.7 42.4,142.6 121.6,142.6 2.1,0 4.2,0 6.4,-0.1 l 2607.1,-109 c 82.6,-3.4 151.1,-73.9 152.1,-156.6 l 0.7,-57.1 c 1.1,-82.7 -65.8,-150.4 -148.5,-150.4"
             style="fill:url(#linearGradient274);fill-opacity:1;fill-rule:nonzero;stroke:none"
             id="path276" /></g></g><g
         id="g278"><g
           id="g280"
           clip-path="url(#clipPath284)"><path
             d="m 12955.1,14592.4 c -138.6,0 -260,72.8 -295.4,177.4 -51.2,151.1 95.1,299 295.4,299 0.5,0 1,0 1.5,0 l 11388.1,-40.5 c 125.2,-0.5 227.2,-78.6 230,-176.2 2.8,-100.4 -100.3,-183.2 -229.1,-184.1 l -11387.8,-75.6 c -0.9,0 -1.8,0 -2.7,0"
             style="fill:url(#linearGradient290);fill-opacity:1;fill-rule:nonzero;stroke:none"
             id="path292" /></g></g><g
         id="g294"><g
           id="g296"
           clip-path="url(#clipPath300)"><path
             d="m 12955.2,12536.3 c -138.7,0 -260.1,72.8 -295.5,177.4 -51.2,151.2 95.1,299 295.4,299 0.5,0 1,0 1.5,0 l 11388.1,-40.5 c 125.2,-0.4 227.2,-78.6 230,-176.2 2.8,-100.4 -100.3,-183.2 -229.1,-184 l -11387.8,-75.7 c -0.9,0 -1.8,0 -2.6,0"
             style="fill:url(#linearGradient306);fill-opacity:1;fill-rule:nonzero;stroke:none"
             id="path308" /></g></g><g
         id="g310"><g
           id="g312"
           clip-path="url(#clipPath316)"><path
             d="m 12955.1,10480.2 c -138.6,0 -260,72.8 -295.4,177.5 -51.2,151.1 95.1,298.9 295.4,298.9 0.5,0 1,0 1.5,0 l 11388.1,-40.5 c 125.2,-0.4 227.2,-78.5 230,-176.1 2.8,-100.4 -100.3,-183.2 -229.1,-184.1 l -11387.8,-75.7 c -0.9,0 -1.8,0 -2.7,0"
             style="fill:url(#linearGradient322);fill-opacity:1;fill-rule:nonzero;stroke:none"
             id="path324" /></g></g><g
         id="g326"><g
           id="g328"
           clip-path="url(#clipPath332)"><path
             d="m 12955.1,8424.2 c -138.6,0 -260,72.8 -295.4,177.4 -51.2,151.2 95.1,299 295.4,299 0.5,0 1,0 1.5,0 l 11388.1,-40.5 c 125.2,-0.5 227.2,-78.6 230,-176.2 2.8,-100.4 -100.3,-183.2 -229.1,-184.1 l -11387.8,-75.6 c -0.9,0 -1.8,0 -2.7,0"
             style="fill:url(#linearGradient338);fill-opacity:1;fill-rule:nonzero;stroke:none"
             id="path340" /></g></g><g
         id="g342"><g
           id="g344"
           clip-path="url(#clipPath348)"><path
             d="m 18389.5,29096.1 c -210.2,0 -380.6,170.4 -380.6,380.6 0,210.2 170.4,380.6 380.6,380.6 210.2,0 380.6,-170.4 380.6,-380.6 0,-210.2 -170.4,-380.6 -380.6,-380.6 z m 671.3,1129.5 c -486,338 -908.5,331.3 -1205.9,243.6 -271.4,-80.1 -447.2,-342 -421.4,-623.8 l 128.3,-1400 1526.3,-135.5 c 0,0 925.6,1252.7 -27.3,1915.7"
             style="fill:url(#linearGradient354);fill-opacity:1;fill-rule:nonzero;stroke:none"
             id="path356" /></g></g><path
         d="m 17674.2,29471.3 c -18.8,0 -34.9,14.3 -36.6,33.5 l -15.6,169.2 c -24.6,268.4 144.3,518.3 401.5,594.2 182.2,53.8 369.9,61.5 557.9,22.9 19.9,-4.1 32.8,-23.6 28.7,-43.5 -4.1,-19.9 -23.4,-32.6 -43.5,-28.7 -176.1,36.1 -351.7,28.9 -522.2,-21.4 -223.6,-66 -370.4,-283.3 -349,-516.8 l 15.5,-169.3 c 1.9,-20.2 -13,-38.1 -33.3,-40 -1.1,-0.1 -2.3,-0.1 -3.4,-0.1 z m 40,-437 c -18.8,0 -34.8,14.4 -36.6,33.5 l -20.4,223 c -1.9,20.2 13,38.1 33.3,40 20.6,2 38.2,-13 40,-33.3 l 20.4,-223 c 1.9,-20.2 -13,-38.2 -33.3,-40 -1.1,-0.1 -2.2,-0.2 -3.4,-0.2"
         style="fill:#91b3fa;fill-opacity:1;fill-rule:nonzero;stroke:none"
         id="path358" /><g
         id="g360"><g
           id="g362"
           clip-path="url(#clipPath366)"><path
             d="m 15478.6,27540.6 v 703.9 c 0,243 201.4,437.6 444.2,429.3 l 4853.1,-166.3 c 215.4,-7.4 389.9,-177.4 402.8,-392.5 l 40.5,-676.4 -5740.6,102"
             style="fill:url(#linearGradient372);fill-opacity:1;fill-rule:nonzero;stroke:none"
             id="path374" /></g></g><path
         d="m 17288.2,28408.5 h -208.7 c -20.4,0 -36.9,16.5 -36.9,36.9 0,20.3 16.5,36.8 36.9,36.8 h 208.7 c 20.3,0 36.8,-16.5 36.8,-36.8 0,-20.4 -16.5,-36.9 -36.8,-36.9"
         style="fill:#91b3fa;fill-opacity:1;fill-rule:nonzero;stroke:none"
         id="path376" /><path
         d="m 15741.2,27761.6 c -20.3,0 -36.8,16.5 -36.8,36.8 v 284.8 c 0,220 179,399 399,399 h 767.3 c 20.4,0 36.9,-16.5 36.9,-36.8 0,-20.4 -16.5,-36.9 -36.9,-36.9 h -767.3 c -179.4,0 -325.3,-145.9 -325.3,-325.3 v -284.8 c 0,-20.3 -16.5,-36.8 -36.9,-36.8"
         style="fill:#91b3fa;fill-opacity:1;fill-rule:nonzero;stroke:none"
         id="path378" /><g
         id="g380"><g
           id="g382"
           clip-path="url(#clipPath386)"><path
             d="m 13501.1,27362.8 c 11.7,243.8 212.8,435.4 456.8,435.4 l 8486.6,0.2 c 305.2,0 566.1,-219.6 618.1,-520.2 l 7.2,-41.5 c 57,-329.4 -196.6,-630.6 -530.8,-630.6 h -8706.8 c -200,0 -359.4,167.2 -349.8,367 l 18.7,389.7"
             style="fill:url(#linearGradient392);fill-opacity:1;fill-rule:nonzero;stroke:none"
             id="path394" /></g></g><g
         id="g396"><g
           id="g398"
           clip-path="url(#clipPath402)"><path
             d="M 17184.9,5293.7 H 4984.44 V 8137.1 H 17184.9 V 5293.7"
             style="fill:url(#linearGradient408);fill-opacity:1;fill-rule:nonzero;stroke:none"
             id="path410" /></g></g><g
         id="g412"><g
           id="g414"
           clip-path="url(#clipPath418)"><path
             d="M 17348.1,5475.7 H 4807.78 c -42.71,0 -77.33,34.6 -77.33,77.3 V 6567.6 H 17399.8 V 5527.4 c 0,-28.6 -23.1,-51.7 -51.7,-51.7"
             style="fill:url(#linearGradient424);fill-opacity:1;fill-rule:nonzero;stroke:none"
             id="path426" /></g></g><g
         id="g428"><g
           id="g430"
           clip-path="url(#clipPath434)"><path
             d="M 17323.1,6715.4 H 4826.12 c -52.84,0 -95.67,42.9 -95.67,95.7 v 996.2 H 17399.8 V 6792.1 c 0,-42.3 -34.3,-76.7 -76.7,-76.7"
             style="fill:url(#linearGradient440);fill-opacity:1;fill-rule:nonzero;stroke:none"
             id="path442" /></g></g><g
         id="g444"><g
           id="g446"
           clip-path="url(#clipPath450)"><path
             d="M 17399.8,7807.3 H 4730.45 v 330.4 c 0,43.7 35.37,79 79,79 H 17319.8 c 44.2,0 80,-35.8 80,-80 v -329.4"
             style="fill:url(#linearGradient456);fill-opacity:1;fill-rule:nonzero;stroke:none"
             id="path458" /></g></g><g
         id="g460"><g
           id="g462"
           clip-path="url(#clipPath466)"><path
             d="m 28535.1,6863.3 c 410.5,-199.6 555.3,-748 323.4,-1225 -231.9,-476.9 -752.7,-701.7 -1163.2,-502.1 -410.5,199.7 -555.3,748.1 -323.4,1225 231.9,477 752.7,701.8 1163.2,502.1"
             style="fill:url(#linearGradient472);fill-opacity:1;fill-rule:nonzero;stroke:none"
             id="path474" /></g></g><g
         id="g476"><g
           id="g478"
           clip-path="url(#clipPath482)"><path
             d="m 27870.7,6653.1 -420.4,-864.5 c -15.1,-31 -52.5,-44 -83.5,-28.9 l -526.2,255.9 c -31,15.1 -44,52.5 -28.9,83.6 l 420.4,864.5 c 15.1,31 52.6,44 83.6,28.9 l 526.1,-255.9 c 31.1,-15.1 44,-52.5 28.9,-83.6"
             style="fill:url(#linearGradient488);fill-opacity:1;fill-rule:nonzero;stroke:none"
             id="path490" /></g></g><g
         id="g492"><g
           id="g494"
           clip-path="url(#clipPath498)"><path
             d="m 27331.8,7070.3 c -75.4,-387.1 -247.3,-732.9 -508.6,-1040.3 -141.1,-166.1 -367.6,-240.5 -592.9,-195.2 -2153.7,432.4 -6667.4,3222.1 -11050.8,5659.2 -290.5,161.5 -491.3,344.7 -354.4,626.2 l 302.3,621.7 c 136,279.8 461.6,122.3 767.2,-3.2 4636.7,-1905 9554.5,-3565.6 11242.8,-5102 162,-147.4 234.2,-362.2 194.4,-566.4"
             style="fill:url(#linearGradient504);fill-opacity:1;fill-rule:nonzero;stroke:none"
             id="path506" /></g></g><g
         id="g508"><g
           id="g510"
           clip-path="url(#clipPath514)"><path
             d="m 15830.5,13377.3 -1026.4,-2110.6 c -14.5,-29.7 -50.4,-42.2 -80.2,-27.7 l -541.3,263.3 c -29.8,14.5 -42.3,50.4 -27.8,80.2 l 1026.4,2110.5 c 14.4,29.8 50.3,42.2 80.1,27.8 l 541.4,-263.3 c 29.8,-14.5 42.2,-50.4 27.8,-80.2"
             style="fill:url(#linearGradient520);fill-opacity:1;fill-rule:nonzero;stroke:none"
             id="path522" /></g></g><g
         id="g524"><g
           id="g526"
           clip-path="url(#clipPath530)"><path
             d="m 11268.5,15484.2 -1026.3,-2110.6 c -14.5,-29.8 -50.4,-42.2 -80.2,-27.7 l -541.38,263.3 c -29.8,14.5 -42.21,50.4 -27.72,80.2 l 1026.3,2110.5 c 14.5,29.8 50.4,42.2 80.2,27.7 l 541.4,-263.2 c 29.8,-14.5 42.2,-50.4 27.7,-80.2"
             style="fill:url(#linearGradient536);fill-opacity:1;fill-rule:nonzero;stroke:none"
             id="path538" /></g></g><g
         id="g540"><g
           id="g542"
           clip-path="url(#clipPath546)"><path
             d="m 16280.8,15438.4 -3243,-6668.9 -4518.05,2197.1 3242.95,6668.9 4518.1,-2197.1"
             style="fill:url(#linearGradient552);fill-opacity:1;fill-rule:nonzero;stroke:none"
             id="path554" /></g></g><g
         id="g556"><g
           id="g558"
           clip-path="url(#clipPath562)"><path
             d="m 13208.9,9121.2 -407.9,-838.7 -4518.06,2197.1 407.84,838.7 4518.12,-2197.1"
             style="fill:url(#linearGradient568);fill-opacity:1;fill-rule:nonzero;stroke:none"
             id="path570" /></g></g><g
         id="g572"><g
           id="g574"
           clip-path="url(#clipPath578)"><path
             d="m 12985.2,8661.3 -202.7,-416.8 c -62,-127.5 -207.1,-191.4 -343,-151 -1408.4,418.2 -2771.46,1070 -4082.95,1987.8 -114.84,80.4 -154.26,232.4 -92.97,358.5 l 203.54,418.6 4518.08,-2197.1"
             style="fill:url(#linearGradient584);fill-opacity:1;fill-rule:nonzero;stroke:none"
             id="path586" /></g></g><g
         id="g588"><g
           id="g590"
           clip-path="url(#clipPath594)"><path
             d="m 13441.4,9289.9 -169,-347.5 c -15.1,-31.1 -52.5,-44 -83.5,-28.9 l -4730.34,2300.3 c -31.04,15.1 -43.97,52.5 -28.87,83.5 l 168.99,347.5 c 15.09,31.1 52.49,44 83.54,28.9 L 13412.5,9373.4 c 31.1,-15.1 44,-52.5 28.9,-83.5"
             style="fill:url(#linearGradient600);fill-opacity:1;fill-rule:nonzero;stroke:none"
             id="path602" /></g></g><g
         id="g604"><g
           id="g606"
           clip-path="url(#clipPath610)"><path
             d="m 13414.4,9234.3 -115,-236.3 c -13.6,-28.2 -47.5,-39.9 -75.6,-26.2 l -4740.93,2305.4 c -28.12,13.7 -39.83,47.6 -26.16,75.7 l 114.94,236.3 c 13.67,28.2 47.55,39.9 75.67,26.2 L 13388.2,9310 c 28.1,-13.7 39.9,-47.6 26.2,-75.7"
             style="fill:url(#linearGradient616);fill-opacity:1;fill-rule:nonzero;stroke:none"
             id="path618" /></g></g><g
         id="g620"><g
           id="g622"
           clip-path="url(#clipPath626)"><path
             d="m 16307.1,15492.5 407.8,838.7 -4518,2197.1 -407.9,-838.7 4518.1,-2197.1"
             style="fill:url(#linearGradient632);fill-opacity:1;fill-rule:nonzero;stroke:none"
             id="path634" /></g></g><g
         id="g636"><g
           id="g638"
           clip-path="url(#clipPath642)"><path
             d="m 16530.7,15952.5 202.7,416.8 c 62,127.4 22.7,281.1 -93,363 -1198.7,849.5 -2553,1519.2 -4084.8,1984 -134.1,40.7 -278.1,-22.2 -339.4,-148.2 l -203.5,-418.6 4518,-2197"
             style="fill:url(#linearGradient648);fill-opacity:1;fill-rule:nonzero;stroke:none"
             id="path650" /></g></g><g
         id="g652"><g
           id="g654"
           clip-path="url(#clipPath658)"><path
             d="m 16318,15205.5 169,347.5 c 15.1,31 2.2,68.4 -28.9,83.5 l -4730.3,2300.3 c -31,15.1 -68.4,2.1 -83.5,-28.9 l -169,-347.5 c -15.1,-31.1 -2.2,-68.5 28.9,-83.6 l 4730.3,-2300.2 c 31,-15.1 68.4,-2.2 83.5,28.9"
             style="fill:url(#linearGradient664);fill-opacity:1;fill-rule:nonzero;stroke:none"
             id="path666" /></g></g><g
         id="g668"><g
           id="g670"
           clip-path="url(#clipPath674)"><path
             d="m 16345.1,15261 114.9,236.4 c 13.7,28.1 2,62 -26.2,75.7 l -4740.9,2305.4 c -28.1,13.6 -62,1.9 -75.6,-26.2 l -115,-236.3 c -13.6,-28.1 -1.9,-62 26.2,-75.7 l 4740.9,-2305.4 c 28.1,-13.7 62,-2 75.7,26.1"
             style="fill:url(#linearGradient680);fill-opacity:1;fill-rule:nonzero;stroke:none"
             id="path682" /></g></g></g></g></svg>
